<svg width="801" height="400" viewBox="0 0 801 400" fill="none" xmlns="http://www.w3.org/2000/svg">
<path d="M5.4375 30H2.74432V21.2727H5.55682C6.40341 21.2727 7.12784 21.4474 7.73011 21.7969C8.33239 22.1435 8.79403 22.642 9.11506 23.2926C9.43608 23.9403 9.59659 24.7159 9.59659 25.6193C9.59659 26.5284 9.43466 27.3111 9.1108 27.9673C8.78693 28.6207 8.31534 29.1236 7.69602 29.4759C7.0767 29.8253 6.32386 30 5.4375 30ZM3.80114 29.0625H5.36932C6.09091 29.0625 6.68892 28.9233 7.16335 28.6449C7.63778 28.3665 7.99148 27.9702 8.22443 27.456C8.45739 26.9418 8.57386 26.3295 8.57386 25.6193C8.57386 24.9148 8.45881 24.3082 8.22869 23.7997C7.99858 23.2884 7.65483 22.8963 7.19744 22.6236C6.74006 22.348 6.17045 22.2102 5.48864 22.2102H3.80114V29.0625ZM13.9773 30.1364C13.3466 30.1364 12.8026 29.9972 12.3452 29.7188C11.8906 29.4375 11.5398 29.0455 11.2926 28.5426C11.0483 28.0369 10.9261 27.4489 10.9261 26.7784C10.9261 26.108 11.0483 25.517 11.2926 25.0057C11.5398 24.4915 11.8835 24.0909 12.3239 23.804C12.767 23.5142 13.2841 23.3693 13.875 23.3693C14.2159 23.3693 14.5526 23.4261 14.8849 23.5398C15.2173 23.6534 15.5199 23.8381 15.7926 24.0938C16.0653 24.3466 16.2827 24.6818 16.4446 25.0994C16.6065 25.517 16.6875 26.0312 16.6875 26.642V27.0682H11.642V26.1989H15.6648C15.6648 25.8295 15.5909 25.5 15.4432 25.2102C15.2983 24.9205 15.0909 24.6918 14.821 24.5241C14.554 24.3565 14.2386 24.2727 13.875 24.2727C13.4744 24.2727 13.1278 24.3722 12.8352 24.571C12.5455 24.767 12.3224 25.0227 12.1662 25.3381C12.0099 25.6534 11.9318 25.9915 11.9318 26.3523V26.9318C11.9318 27.4261 12.017 27.8452 12.1875 28.1889C12.3608 28.5298 12.6009 28.7898 12.9077 28.9688C13.2145 29.1449 13.571 29.233 13.9773 29.233C14.2415 29.233 14.4801 29.196 14.6932 29.1222C14.9091 29.0455 15.0952 28.9318 15.2514 28.7812C15.4077 28.6278 15.5284 28.4375 15.6136 28.2102L16.5852 28.483C16.483 28.8125 16.3111 29.1023 16.0696 29.3523C15.8281 29.5994 15.5298 29.7926 15.1747 29.9318C14.8196 30.0682 14.4205 30.1364 13.9773 30.1364ZM20.8764 30.1364C20.2628 30.1364 19.7344 29.9915 19.2912 29.7017C18.848 29.4119 18.5071 29.0128 18.2685 28.5043C18.0298 27.9957 17.9105 27.4148 17.9105 26.7614C17.9105 26.0966 18.0327 25.5099 18.277 25.0014C18.5241 24.4901 18.8679 24.0909 19.3082 23.804C19.7514 23.5142 20.2685 23.3693 20.8594 23.3693C21.3196 23.3693 21.7344 23.4545 22.1037 23.625C22.473 23.7955 22.7756 24.0341 23.0114 24.3409C23.2472 24.6477 23.3935 25.0057 23.4503 25.4148H22.4446C22.3679 25.1165 22.1974 24.8523 21.9332 24.6222C21.6719 24.3892 21.3196 24.2727 20.8764 24.2727C20.4844 24.2727 20.1406 24.375 19.8452 24.5795C19.5526 24.7812 19.3239 25.0668 19.1591 25.4361C18.9972 25.8026 18.9162 26.233 18.9162 26.7273C18.9162 27.233 18.9957 27.6733 19.1548 28.0483C19.3168 28.4233 19.544 28.7145 19.8366 28.9219C20.1321 29.1293 20.4787 29.233 20.8764 29.233C21.1378 29.233 21.375 29.1875 21.5881 29.0966C21.8011 29.0057 21.9815 28.875 22.1293 28.7045C22.277 28.5341 22.3821 28.3295 22.4446 28.0909H23.4503C23.3935 28.4773 23.2528 28.8253 23.0284 29.1349C22.8068 29.4418 22.5128 29.6861 22.1463 29.8679C21.7827 30.0469 21.3594 30.1364 20.8764 30.1364Z" fill="black" fill-opacity="0.4"/>
<path d="M9.33665 51.7727V60.5H8.31392L3.55824 53.6477H3.47301V60.5H2.41619V51.7727H3.43892L8.21165 58.642H8.29688V51.7727H9.33665ZM13.9741 60.6364C13.3832 60.6364 12.8647 60.4957 12.4187 60.2145C11.9755 59.9332 11.6289 59.5398 11.3789 59.0341C11.1317 58.5284 11.0082 57.9375 11.0082 57.2614C11.0082 56.5795 11.1317 55.9844 11.3789 55.4759C11.6289 54.9673 11.9755 54.5724 12.4187 54.2912C12.8647 54.0099 13.3832 53.8693 13.9741 53.8693C14.565 53.8693 15.082 54.0099 15.5252 54.2912C15.9712 54.5724 16.3178 54.9673 16.565 55.4759C16.815 55.9844 16.94 56.5795 16.94 57.2614C16.94 57.9375 16.815 58.5284 16.565 59.0341C16.3178 59.5398 15.9712 59.9332 15.5252 60.2145C15.082 60.4957 14.565 60.6364 13.9741 60.6364ZM13.9741 59.733C14.4229 59.733 14.7923 59.6179 15.082 59.3878C15.3718 59.1577 15.5863 58.8551 15.7255 58.4801C15.8647 58.1051 15.9343 57.6989 15.9343 57.2614C15.9343 56.8239 15.8647 56.4162 15.7255 56.0384C15.5863 55.6605 15.3718 55.3551 15.082 55.1222C14.7923 54.8892 14.4229 54.7727 13.9741 54.7727C13.5252 54.7727 13.1559 54.8892 12.8661 55.1222C12.5763 55.3551 12.3619 55.6605 12.2227 56.0384C12.0835 56.4162 12.0138 56.8239 12.0138 57.2614C12.0138 57.6989 12.0835 58.1051 12.2227 58.4801C12.3619 58.8551 12.5763 59.1577 12.8661 59.3878C13.1559 59.6179 13.5252 59.733 13.9741 59.733ZM23.593 53.9545L21.1726 60.5H20.1499L17.7294 53.9545H18.8203L20.6271 59.1705H20.6953L22.5021 53.9545H23.593Z" fill="black" fill-opacity="0.4"/>
<path d="M12.2173 86.6364C12.2173 87.5568 12.0511 88.3523 11.7188 89.0227C11.3864 89.6932 10.9304 90.2102 10.3509 90.5739C9.77131 90.9375 9.10938 91.1193 8.36506 91.1193C7.62074 91.1193 6.95881 90.9375 6.37926 90.5739C5.79972 90.2102 5.34375 89.6932 5.01136 89.0227C4.67898 88.3523 4.51278 87.5568 4.51278 86.6364C4.51278 85.7159 4.67898 84.9205 5.01136 84.25C5.34375 83.5795 5.79972 83.0625 6.37926 82.6989C6.95881 82.3352 7.62074 82.1534 8.36506 82.1534C9.10938 82.1534 9.77131 82.3352 10.3509 82.6989C10.9304 83.0625 11.3864 83.5795 11.7188 84.25C12.0511 84.9205 12.2173 85.7159 12.2173 86.6364ZM11.1946 86.6364C11.1946 85.8807 11.0682 85.2429 10.8153 84.723C10.5653 84.2031 10.2259 83.8097 9.79688 83.5426C9.37074 83.2756 8.89347 83.142 8.36506 83.142C7.83665 83.142 7.35795 83.2756 6.92898 83.5426C6.50284 83.8097 6.16335 84.2031 5.91051 84.723C5.66051 85.2429 5.53551 85.8807 5.53551 86.6364C5.53551 87.392 5.66051 88.0298 5.91051 88.5497C6.16335 89.0696 6.50284 89.4631 6.92898 89.7301C7.35795 89.9972 7.83665 90.1307 8.36506 90.1307C8.89347 90.1307 9.37074 89.9972 9.79688 89.7301C10.2259 89.4631 10.5653 89.0696 10.8153 88.5497C11.0682 88.0298 11.1946 87.392 11.1946 86.6364ZM16.517 91.1364C15.9034 91.1364 15.375 90.9915 14.9318 90.7017C14.4886 90.4119 14.1477 90.0128 13.9091 89.5043C13.6705 88.9957 13.5511 88.4148 13.5511 87.7614C13.5511 87.0966 13.6733 86.5099 13.9176 86.0014C14.1648 85.4901 14.5085 85.0909 14.9489 84.804C15.392 84.5142 15.9091 84.3693 16.5 84.3693C16.9602 84.3693 17.375 84.4545 17.7443 84.625C18.1136 84.7955 18.4162 85.0341 18.652 85.3409C18.8878 85.6477 19.0341 86.0057 19.0909 86.4148H18.0852C18.0085 86.1165 17.8381 85.8523 17.5739 85.6222C17.3125 85.3892 16.9602 85.2727 16.517 85.2727C16.125 85.2727 15.7813 85.375 15.4858 85.5795C15.1932 85.7812 14.9645 86.0668 14.7997 86.4361C14.6378 86.8026 14.5568 87.233 14.5568 87.7273C14.5568 88.233 14.6364 88.6733 14.7955 89.0483C14.9574 89.4233 15.1847 89.7145 15.4773 89.9219C15.7727 90.1293 16.1193 90.233 16.517 90.233C16.7784 90.233 17.0156 90.1875 17.2287 90.0966C17.4418 90.0057 17.6222 89.875 17.7699 89.7045C17.9176 89.5341 18.0227 89.3295 18.0852 89.0909H19.0909C19.0341 89.4773 18.8935 89.8253 18.669 90.1349C18.4474 90.4418 18.1534 90.6861 17.7869 90.8679C17.4233 91.0469 17 91.1364 16.517 91.1364ZM23.4077 84.4545V85.3068H20.0156V84.4545H23.4077ZM21.0043 82.8864H22.0099V89.125C22.0099 89.4091 22.0511 89.6222 22.1335 89.7642C22.2188 89.9034 22.3267 89.9972 22.4574 90.0455C22.5909 90.0909 22.7315 90.1136 22.8793 90.1136C22.9901 90.1136 23.081 90.108 23.152 90.0966C23.223 90.0824 23.2798 90.071 23.3224 90.0625L23.527 90.9659C23.4588 90.9915 23.3636 91.017 23.2415 91.0426C23.1193 91.071 22.9645 91.0852 22.777 91.0852C22.4929 91.0852 22.2145 91.0241 21.9418 90.902C21.6719 90.7798 21.4474 90.5938 21.2685 90.3438C21.0923 90.0938 21.0043 89.7784 21.0043 89.3977V82.8864Z" fill="black" fill-opacity="0.4"/>
<path d="M7.88033 114.955C7.82919 114.523 7.6218 114.188 7.25817 113.949C6.89453 113.71 6.44851 113.591 5.9201 113.591C5.53374 113.591 5.19567 113.653 4.90589 113.778C4.61896 113.903 4.39453 114.075 4.2326 114.294C4.07351 114.513 3.99396 114.761 3.99396 115.04C3.99396 115.273 4.04936 115.473 4.16016 115.641C4.27379 115.805 4.41868 115.943 4.59482 116.054C4.77095 116.162 4.95561 116.251 5.14879 116.322C5.34197 116.391 5.51953 116.446 5.68146 116.489L6.56783 116.727C6.7951 116.787 7.04794 116.869 7.32635 116.974C7.6076 117.08 7.87607 117.223 8.13175 117.405C8.39027 117.584 8.60334 117.814 8.77095 118.095C8.93857 118.376 9.02237 118.722 9.02237 119.131C9.02237 119.602 8.89879 120.028 8.65163 120.409C8.40732 120.79 8.04936 121.092 7.57777 121.317C7.10902 121.541 6.53942 121.653 5.86896 121.653C5.24396 121.653 4.70277 121.553 4.24538 121.351C3.79084 121.149 3.43288 120.868 3.17152 120.507C2.913 120.146 2.76669 119.727 2.7326 119.25H3.82351C3.85192 119.58 3.96271 119.852 4.15589 120.068C4.35192 120.281 4.59908 120.44 4.89737 120.545C5.19851 120.648 5.52237 120.699 5.86896 120.699C6.27237 120.699 6.63459 120.634 6.95561 120.503C7.27663 120.369 7.5309 120.185 7.7184 119.949C7.9059 119.71 7.99965 119.432 7.99965 119.114C7.99965 118.824 7.91868 118.588 7.75675 118.406C7.59482 118.224 7.38175 118.077 7.11754 117.963C6.85334 117.849 6.56783 117.75 6.26101 117.665L5.18715 117.358C4.50533 117.162 3.96555 116.882 3.56783 116.518C3.1701 116.155 2.97124 115.679 2.97124 115.091C2.97124 114.602 3.10334 114.176 3.36754 113.812C3.63459 113.446 3.99254 113.162 4.44141 112.96C4.89311 112.756 5.39737 112.653 5.95419 112.653C6.51669 112.653 7.01669 112.754 7.45419 112.956C7.89169 113.155 8.23828 113.428 8.49396 113.774C8.75249 114.121 8.88885 114.514 8.90305 114.955H7.88033ZM13.3679 121.636C12.7372 121.636 12.1932 121.497 11.7358 121.219C11.2812 120.938 10.9304 120.545 10.6832 120.043C10.4389 119.537 10.3168 118.949 10.3168 118.278C10.3168 117.608 10.4389 117.017 10.6832 116.506C10.9304 115.991 11.2741 115.591 11.7145 115.304C12.1577 115.014 12.6747 114.869 13.2656 114.869C13.6065 114.869 13.9432 114.926 14.2756 115.04C14.608 115.153 14.9105 115.338 15.1832 115.594C15.456 115.847 15.6733 116.182 15.8352 116.599C15.9972 117.017 16.0781 117.531 16.0781 118.142V118.568H11.0327V117.699H15.0554C15.0554 117.33 14.9815 117 14.8338 116.71C14.6889 116.42 14.4815 116.192 14.2116 116.024C13.9446 115.857 13.6293 115.773 13.2656 115.773C12.8651 115.773 12.5185 115.872 12.2259 116.071C11.9361 116.267 11.7131 116.523 11.5568 116.838C11.4006 117.153 11.3224 117.491 11.3224 117.852V118.432C11.3224 118.926 11.4077 119.345 11.5781 119.689C11.7514 120.03 11.9915 120.29 12.2983 120.469C12.6051 120.645 12.9616 120.733 13.3679 120.733C13.6321 120.733 13.8707 120.696 14.0838 120.622C14.2997 120.545 14.4858 120.432 14.642 120.281C14.7983 120.128 14.919 119.937 15.0043 119.71L15.9759 119.983C15.8736 120.312 15.7017 120.602 15.4602 120.852C15.2188 121.099 14.9205 121.293 14.5653 121.432C14.2102 121.568 13.8111 121.636 13.3679 121.636ZM17.608 123.955V114.955H18.5795V115.994H18.6989C18.7727 115.881 18.875 115.736 19.0057 115.56C19.1392 115.381 19.3295 115.222 19.5767 115.082C19.8267 114.94 20.1648 114.869 20.5909 114.869C21.142 114.869 21.6278 115.007 22.0483 115.283C22.4688 115.558 22.7969 115.949 23.0327 116.455C23.2685 116.96 23.3864 117.557 23.3864 118.244C23.3864 118.938 23.2685 119.538 23.0327 120.047C22.7969 120.553 22.4702 120.945 22.0526 121.223C21.6349 121.499 21.1534 121.636 20.608 121.636C20.1875 121.636 19.8509 121.567 19.598 121.428C19.3452 121.286 19.1506 121.125 19.0142 120.946C18.8778 120.764 18.7727 120.614 18.6989 120.494H18.6136V123.955H17.608ZM18.5966 118.227C18.5966 118.722 18.669 119.158 18.8139 119.536C18.9588 119.911 19.1705 120.205 19.4489 120.418C19.7273 120.628 20.0682 120.733 20.4716 120.733C20.892 120.733 21.2429 120.622 21.5241 120.401C21.8082 120.176 22.0213 119.875 22.1634 119.497C22.3082 119.116 22.3807 118.693 22.3807 118.227C22.3807 117.767 22.3097 117.352 22.1676 116.983C22.0284 116.611 21.8168 116.317 21.5327 116.101C21.2514 115.882 20.8977 115.773 20.4716 115.773C20.0625 115.773 19.7188 115.876 19.4403 116.084C19.1619 116.288 18.9517 116.575 18.8097 116.945C18.6676 117.311 18.5966 117.739 18.5966 118.227Z" fill="black" fill-opacity="0.4"/>
<path d="M3.02024 152H1.91229L5.11683 143.273H6.20774L9.41229 152H8.30433L5.69638 144.653H5.6282L3.02024 152ZM3.42933 148.591H7.89524V149.528H3.42933V148.591ZM14.7603 149.324V145.455H15.766V152H14.7603V150.892H14.6921C14.5387 151.224 14.3001 151.507 13.9762 151.74C13.6523 151.97 13.2433 152.085 12.7489 152.085C12.3398 152.085 11.9762 151.996 11.658 151.817C11.3398 151.635 11.0898 151.362 10.908 150.999C10.7262 150.632 10.6353 150.17 10.6353 149.614V145.455H11.641V149.545C11.641 150.023 11.7745 150.403 12.0415 150.688C12.3114 150.972 12.6552 151.114 13.0728 151.114C13.3228 151.114 13.5771 151.05 13.8356 150.922C14.0969 150.794 14.3157 150.598 14.4918 150.334C14.6708 150.07 14.7603 149.733 14.7603 149.324ZM20.25 154.591C19.7642 154.591 19.3466 154.528 18.9972 154.403C18.6477 154.281 18.3565 154.119 18.1236 153.918C17.8935 153.719 17.7102 153.506 17.5739 153.278L18.375 152.716C18.4659 152.835 18.581 152.972 18.7202 153.125C18.8594 153.281 19.0497 153.416 19.2912 153.53C19.5355 153.646 19.8551 153.705 20.25 153.705C20.7784 153.705 21.2145 153.577 21.5582 153.321C21.902 153.065 22.0739 152.665 22.0739 152.119V150.79H21.9886C21.9148 150.909 21.8097 151.057 21.6733 151.233C21.5398 151.406 21.3466 151.561 21.0938 151.697C20.8438 151.831 20.5057 151.898 20.0795 151.898C19.5511 151.898 19.0767 151.773 18.6562 151.523C18.2386 151.273 17.9077 150.909 17.6634 150.432C17.4219 149.955 17.3011 149.375 17.3011 148.693C17.3011 148.023 17.419 147.439 17.6548 146.942C17.8906 146.442 18.2188 146.055 18.6392 145.783C19.0597 145.507 19.5455 145.369 20.0966 145.369C20.5227 145.369 20.8608 145.44 21.1108 145.582C21.3636 145.722 21.5568 145.881 21.6903 146.06C21.8267 146.236 21.9318 146.381 22.0057 146.494H22.108V145.455H23.0795V152.188C23.0795 152.75 22.9517 153.207 22.696 153.56C22.4432 153.915 22.1023 154.175 21.6733 154.339C21.2472 154.507 20.7727 154.591 20.25 154.591ZM20.2159 150.994C20.6193 150.994 20.9602 150.902 21.2386 150.717C21.517 150.533 21.7287 150.267 21.8736 149.92C22.0185 149.574 22.0909 149.159 22.0909 148.676C22.0909 148.205 22.0199 147.788 21.8778 147.428C21.7358 147.067 21.5256 146.784 21.2472 146.58C20.9688 146.375 20.625 146.273 20.2159 146.273C19.7898 146.273 19.4347 146.381 19.1506 146.597C18.8693 146.812 18.6577 147.102 18.5156 147.466C18.3764 147.83 18.3068 148.233 18.3068 148.676C18.3068 149.131 18.3778 149.533 18.5199 149.882C18.6648 150.229 18.8778 150.501 19.1591 150.7C19.4432 150.896 19.7955 150.994 20.2159 150.994Z" fill="black" fill-opacity="0.4"/>
<path d="M12.0618 173.773H13.1186V180.011C13.1186 180.568 13.0163 181.041 12.8118 181.43C12.6072 181.82 12.3189 182.115 11.9467 182.317C11.5746 182.518 11.1357 182.619 10.63 182.619C10.1527 182.619 9.72798 182.533 9.35582 182.359C8.98366 182.183 8.69105 181.933 8.47798 181.609C8.26491 181.286 8.15838 180.901 8.15838 180.455H9.19815C9.19815 180.702 9.25923 180.918 9.38139 181.102C9.50639 181.284 9.67685 181.426 9.89276 181.528C10.1087 181.631 10.3544 181.682 10.63 181.682C10.9339 181.682 11.1925 181.618 11.4055 181.49C11.6186 181.362 11.7805 181.175 11.8913 180.928C12.005 180.678 12.0618 180.372 12.0618 180.011V173.773ZM19.2251 179.824V175.955H20.2308V182.5H19.2251V181.392H19.157C19.0036 181.724 18.7649 182.007 18.4411 182.24C18.1172 182.47 17.7081 182.585 17.2138 182.585C16.8047 182.585 16.4411 182.496 16.1229 182.317C15.8047 182.135 15.5547 181.862 15.3729 181.499C15.1911 181.132 15.1001 180.67 15.1001 180.114V175.955H16.1058V180.045C16.1058 180.523 16.2393 180.903 16.5064 181.188C16.7763 181.472 17.12 181.614 17.5376 181.614C17.7876 181.614 18.0419 181.55 18.3004 181.422C18.5618 181.294 18.7805 181.098 18.9567 180.834C19.1357 180.57 19.2251 180.233 19.2251 179.824ZM23.0785 173.773V182.5H22.0728V173.773H23.0785Z" fill="black" fill-opacity="0.4"/>
<path d="M7.88991 204.273H8.94673V210.511C8.94673 211.068 8.84446 211.541 8.63991 211.93C8.43537 212.32 8.14702 212.615 7.77486 212.817C7.4027 213.018 6.96378 213.119 6.4581 213.119C5.98082 213.119 5.55611 213.033 5.18395 212.859C4.81179 212.683 4.51918 212.433 4.30611 212.109C4.09304 211.786 3.98651 211.401 3.98651 210.955H5.02628C5.02628 211.202 5.08736 211.418 5.20952 211.602C5.33452 211.784 5.50497 211.926 5.72088 212.028C5.93679 212.131 6.18253 212.182 6.4581 212.182C6.76207 212.182 7.0206 212.118 7.23366 211.99C7.44673 211.862 7.60866 211.675 7.71946 211.428C7.8331 211.178 7.88991 210.872 7.88991 210.511V204.273ZM15.0533 210.324V206.455H16.0589V213H15.0533V211.892H14.9851C14.8317 212.224 14.593 212.507 14.2692 212.74C13.9453 212.97 13.5362 213.085 13.0419 213.085C12.6328 213.085 12.2692 212.996 11.951 212.817C11.6328 212.635 11.3828 212.362 11.201 211.999C11.0192 211.632 10.9283 211.17 10.9283 210.614V206.455H11.9339V210.545C11.9339 211.023 12.0675 211.403 12.3345 211.688C12.6044 211.972 12.9482 212.114 13.3658 212.114C13.6158 212.114 13.87 212.05 14.1286 211.922C14.3899 211.794 14.6087 211.598 14.7848 211.334C14.9638 211.07 15.0533 210.733 15.0533 210.324ZM18.9066 209.062V213H17.9009V206.455H18.8725V207.477H18.9577C19.1112 207.145 19.3441 206.878 19.6566 206.676C19.9691 206.472 20.3725 206.369 20.8668 206.369C21.31 206.369 21.6978 206.46 22.0302 206.642C22.3626 206.821 22.6211 207.094 22.8058 207.46C22.9904 207.824 23.0827 208.284 23.0827 208.841V213H22.0771V208.909C22.0771 208.395 21.9435 207.994 21.6765 207.707C21.4094 207.418 21.043 207.273 20.5771 207.273C20.256 207.273 19.9691 207.342 19.7163 207.482C19.4663 207.621 19.2688 207.824 19.1239 208.091C18.979 208.358 18.9066 208.682 18.9066 209.062Z" fill="black" fill-opacity="0.4"/>
<path d="M1.17401 234.773H2.43537L5.40128 242.017H5.50355L8.46946 234.773H9.73082V243.5H8.74219V236.869H8.65696L5.92969 243.5H4.97514L2.24787 236.869H2.16264V243.5H1.17401V234.773ZM13.6396 243.653C13.2248 243.653 12.8484 243.575 12.5103 243.419C12.1722 243.26 11.9038 243.031 11.7049 242.733C11.506 242.432 11.4066 242.068 11.4066 241.642C11.4066 241.267 11.4805 240.963 11.6282 240.73C11.7759 240.494 11.9734 240.31 12.2205 240.176C12.4677 240.043 12.7404 239.943 13.0387 239.878C13.3398 239.81 13.6424 239.756 13.9464 239.716C14.3441 239.665 14.6665 239.626 14.9137 239.601C15.1637 239.572 15.3455 239.526 15.4592 239.46C15.5756 239.395 15.6339 239.281 15.6339 239.119V239.085C15.6339 238.665 15.5188 238.338 15.2887 238.105C15.0614 237.872 14.7163 237.756 14.2532 237.756C13.7731 237.756 13.3967 237.861 13.1239 238.071C12.8512 238.281 12.6594 238.506 12.5487 238.744L11.5941 238.403C11.7646 238.006 11.9918 237.696 12.2759 237.474C12.5629 237.25 12.8754 237.094 13.2134 237.006C13.5543 236.915 13.8896 236.869 14.2191 236.869C14.4293 236.869 14.6708 236.895 14.9435 236.946C15.2191 236.994 15.4847 237.095 15.7404 237.249C15.9989 237.402 16.2134 237.634 16.3839 237.943C16.5543 238.253 16.6396 238.668 16.6396 239.188V243.5H15.6339V242.614H15.5827C15.5146 242.756 15.4009 242.908 15.2418 243.07C15.0827 243.232 14.8711 243.369 14.6069 243.483C14.3427 243.597 14.0202 243.653 13.6396 243.653ZM13.793 242.75C14.1907 242.75 14.5259 242.672 14.7987 242.516C15.0742 242.359 15.2816 242.158 15.4208 241.911C15.5629 241.663 15.6339 241.403 15.6339 241.131V240.21C15.5913 240.261 15.4975 240.308 15.3526 240.351C15.2106 240.391 15.0458 240.426 14.8583 240.457C14.6737 240.486 14.4933 240.511 14.3171 240.534C14.1438 240.554 14.0032 240.571 13.8952 240.585C13.6339 240.619 13.3896 240.675 13.1623 240.751C12.9379 240.825 12.756 240.937 12.6168 241.088C12.4805 241.236 12.4123 241.437 12.4123 241.693C12.4123 242.043 12.5415 242.307 12.8001 242.486C13.0614 242.662 13.3924 242.75 13.793 242.75ZM18.8885 245.955C18.718 245.955 18.5661 245.94 18.4325 245.912C18.299 245.886 18.2067 245.861 18.1555 245.835L18.4112 244.949C18.6555 245.011 18.8714 245.034 19.0589 245.017C19.2464 245 19.4126 244.916 19.5575 244.766C19.7053 244.618 19.8402 244.378 19.9624 244.045L20.1499 243.534L17.7294 236.955H18.8203L20.6271 242.17H20.6953L22.5021 236.955H23.593L20.8146 244.455C20.6896 244.793 20.5348 245.072 20.3501 245.294C20.1655 245.518 19.951 245.685 19.7067 245.793C19.4652 245.901 19.1925 245.955 18.8885 245.955Z" fill="black" fill-opacity="0.4"/>
<path d="M5.52805 274H4.4201L7.62465 265.273H8.71555L11.9201 274H10.8121L8.20419 266.653H8.13601L5.52805 274ZM5.93714 270.591H10.4031V271.528H5.93714V270.591ZM13.1431 276.455V267.455H14.1147V268.494H14.234C14.3079 268.381 14.4102 268.236 14.5408 268.06C14.6744 267.881 14.8647 267.722 15.1119 267.582C15.3619 267.44 15.6999 267.369 16.1261 267.369C16.6772 267.369 17.163 267.507 17.5835 267.783C18.0039 268.058 18.332 268.449 18.5678 268.955C18.8036 269.46 18.9215 270.057 18.9215 270.744C18.9215 271.438 18.8036 272.038 18.5678 272.547C18.332 273.053 18.0053 273.445 17.5877 273.723C17.1701 273.999 16.6886 274.136 16.1431 274.136C15.7227 274.136 15.386 274.067 15.1332 273.928C14.8803 273.786 14.6857 273.625 14.5494 273.446C14.413 273.264 14.3079 273.114 14.234 272.994H14.1488V276.455H13.1431ZM14.1317 270.727C14.1317 271.222 14.2042 271.658 14.3491 272.036C14.494 272.411 14.7056 272.705 14.984 272.918C15.2624 273.128 15.6033 273.233 16.0067 273.233C16.4272 273.233 16.7781 273.122 17.0593 272.901C17.3434 272.676 17.5565 272.375 17.6985 271.997C17.8434 271.616 17.9158 271.193 17.9158 270.727C17.9158 270.267 17.8448 269.852 17.7028 269.483C17.5636 269.111 17.3519 268.817 17.0678 268.601C16.7866 268.382 16.4329 268.273 16.0067 268.273C15.5977 268.273 15.2539 268.376 14.9755 268.584C14.6971 268.788 14.4869 269.075 14.3448 269.445C14.2028 269.811 14.1317 270.239 14.1317 270.727ZM20.4556 274V267.455H21.4272V268.443H21.4954C21.6147 268.119 21.8306 267.857 22.1431 267.655C22.4556 267.453 22.8079 267.352 23.1999 267.352C23.2738 267.352 23.3661 267.354 23.4769 267.357C23.5877 267.359 23.6715 267.364 23.7283 267.369V268.392C23.6942 268.384 23.6161 268.371 23.494 268.354C23.3746 268.334 23.2482 268.324 23.1147 268.324C22.7965 268.324 22.5124 268.391 22.2624 268.524C22.0153 268.655 21.8192 268.837 21.6744 269.07C21.5323 269.3 21.4613 269.562 21.4613 269.858V274H20.4556Z" fill="black" fill-opacity="0.4"/>
<path d="M3.15447 295.773H4.41584L7.38175 303.017H7.48402L10.4499 295.773H11.7113V304.5H10.7227V297.869H10.6374L7.91016 304.5H6.95561L4.22834 297.869H4.14311V304.5H3.15447V295.773ZM15.62 304.653C15.2053 304.653 14.8288 304.575 14.4908 304.419C14.1527 304.26 13.8842 304.031 13.6854 303.733C13.4865 303.432 13.3871 303.068 13.3871 302.642C13.3871 302.267 13.4609 301.963 13.6087 301.73C13.7564 301.494 13.9538 301.31 14.201 301.176C14.4482 301.043 14.7209 300.943 15.0192 300.878C15.3203 300.81 15.6229 300.756 15.9268 300.716C16.3246 300.665 16.647 300.626 16.8942 300.601C17.1442 300.572 17.326 300.526 17.4396 300.46C17.5561 300.395 17.6143 300.281 17.6143 300.119V300.085C17.6143 299.665 17.4993 299.338 17.2692 299.105C17.0419 298.872 16.6967 298.756 16.2337 298.756C15.7536 298.756 15.3771 298.861 15.1044 299.071C14.8317 299.281 14.6399 299.506 14.5291 299.744L13.5746 299.403C13.745 299.006 13.9723 298.696 14.2564 298.474C14.5433 298.25 14.8558 298.094 15.1939 298.006C15.5348 297.915 15.87 297.869 16.1996 297.869C16.4098 297.869 16.6513 297.895 16.924 297.946C17.1996 297.994 17.4652 298.095 17.7209 298.249C17.9794 298.402 18.1939 298.634 18.3643 298.943C18.5348 299.253 18.62 299.668 18.62 300.188V304.5H17.6143V303.614H17.5632C17.495 303.756 17.3814 303.908 17.2223 304.07C17.0632 304.232 16.8516 304.369 16.5874 304.483C16.3232 304.597 16.0007 304.653 15.62 304.653ZM15.7734 303.75C16.1712 303.75 16.5064 303.672 16.7791 303.516C17.0547 303.359 17.2621 303.158 17.4013 302.911C17.5433 302.663 17.6143 302.403 17.6143 302.131V301.21C17.5717 301.261 17.478 301.308 17.3331 301.351C17.1911 301.391 17.0263 301.426 16.8388 301.457C16.6541 301.486 16.4737 301.511 16.2976 301.534C16.1243 301.554 15.9837 301.571 15.8757 301.585C15.6143 301.619 15.37 301.675 15.1428 301.751C14.9183 301.825 14.7365 301.937 14.5973 302.088C14.4609 302.236 14.3928 302.437 14.3928 302.693C14.3928 303.043 14.522 303.307 14.7805 303.486C15.0419 303.662 15.3729 303.75 15.7734 303.75ZM20.4556 304.5V297.955H21.4272V298.943H21.4954C21.6147 298.619 21.8306 298.357 22.1431 298.155C22.4556 297.953 22.8079 297.852 23.1999 297.852C23.2738 297.852 23.3661 297.854 23.4769 297.857C23.5877 297.859 23.6715 297.864 23.7283 297.869V298.892C23.6942 298.884 23.6161 298.871 23.494 298.854C23.3746 298.834 23.2482 298.824 23.1147 298.824C22.7965 298.824 22.5124 298.891 22.2624 299.024C22.0153 299.155 21.8192 299.337 21.6744 299.57C21.5323 299.8 21.4613 300.062 21.4613 300.358V304.5H20.4556Z" fill="black" fill-opacity="0.4"/>
<path d="M4.05682 335V326.273H9.28977V327.21H5.11364V330.159H8.89773V331.097H5.11364V335H4.05682ZM13.2273 335.136C12.5966 335.136 12.0526 334.997 11.5952 334.719C11.1406 334.438 10.7898 334.045 10.5426 333.543C10.2983 333.037 10.1761 332.449 10.1761 331.778C10.1761 331.108 10.2983 330.517 10.5426 330.006C10.7898 329.491 11.1335 329.091 11.5739 328.804C12.017 328.514 12.5341 328.369 13.125 328.369C13.4659 328.369 13.8026 328.426 14.1349 328.54C14.4673 328.653 14.7699 328.838 15.0426 329.094C15.3153 329.347 15.5327 329.682 15.6946 330.099C15.8565 330.517 15.9375 331.031 15.9375 331.642V332.068H10.892V331.199H14.9148C14.9148 330.83 14.8409 330.5 14.6932 330.21C14.5483 329.92 14.3409 329.692 14.071 329.524C13.804 329.357 13.4886 329.273 13.125 329.273C12.7244 329.273 12.3778 329.372 12.0852 329.571C11.7955 329.767 11.5724 330.023 11.4162 330.338C11.2599 330.653 11.1818 330.991 11.1818 331.352V331.932C11.1818 332.426 11.267 332.845 11.4375 333.189C11.6108 333.53 11.8509 333.79 12.1577 333.969C12.4645 334.145 12.821 334.233 13.2273 334.233C13.4915 334.233 13.7301 334.196 13.9432 334.122C14.1591 334.045 14.3452 333.932 14.5014 333.781C14.6577 333.628 14.7784 333.437 14.8636 333.21L15.8352 333.483C15.733 333.812 15.5611 334.102 15.3196 334.352C15.0781 334.599 14.7798 334.793 14.4247 334.932C14.0696 335.068 13.6705 335.136 13.2273 335.136ZM17.6037 335V326.273H18.6094V329.494H18.6946C18.7685 329.381 18.8707 329.236 19.0014 329.06C19.1349 328.881 19.3253 328.722 19.5724 328.582C19.8224 328.44 20.1605 328.369 20.5866 328.369C21.1378 328.369 21.6236 328.507 22.044 328.783C22.4645 329.058 22.7926 329.449 23.0284 329.955C23.2642 330.46 23.3821 331.057 23.3821 331.744C23.3821 332.438 23.2642 333.038 23.0284 333.547C22.7926 334.053 22.4659 334.445 22.0483 334.723C21.6307 334.999 21.1491 335.136 20.6037 335.136C20.1832 335.136 19.8466 335.067 19.5938 334.928C19.3409 334.786 19.1463 334.625 19.0099 334.446C18.8736 334.264 18.7685 334.114 18.6946 333.994H18.5753V335H17.6037ZM18.5923 331.727C18.5923 332.222 18.6648 332.658 18.8097 333.036C18.9545 333.411 19.1662 333.705 19.4446 333.918C19.723 334.128 20.0639 334.233 20.4673 334.233C20.8878 334.233 21.2386 334.122 21.5199 333.901C21.804 333.676 22.017 333.375 22.1591 332.997C22.304 332.616 22.3764 332.193 22.3764 331.727C22.3764 331.267 22.3054 330.852 22.1634 330.483C22.0241 330.111 21.8125 329.817 21.5284 329.601C21.2472 329.382 20.8935 329.273 20.4673 329.273C20.0582 329.273 19.7145 329.376 19.4361 329.584C19.1577 329.788 18.9474 330.075 18.8054 330.445C18.6634 330.811 18.5923 331.239 18.5923 331.727Z" fill="black" fill-opacity="0.4"/>
<path d="M8.10085 356.773H9.15767V363.011C9.15767 363.568 9.0554 364.041 8.85085 364.43C8.64631 364.82 8.35795 365.115 7.9858 365.317C7.61364 365.518 7.17472 365.619 6.66903 365.619C6.19176 365.619 5.76705 365.533 5.39489 365.359C5.02273 365.183 4.73011 364.933 4.51705 364.609C4.30398 364.286 4.19744 363.901 4.19744 363.455H5.23722C5.23722 363.702 5.2983 363.918 5.42045 364.102C5.54545 364.284 5.71591 364.426 5.93182 364.528C6.14773 364.631 6.39347 364.682 6.66903 364.682C6.97301 364.682 7.23153 364.618 7.4446 364.49C7.65767 364.362 7.8196 364.175 7.9304 363.928C8.04403 363.678 8.10085 363.372 8.10085 363.011V356.773ZM13.0653 365.653C12.6506 365.653 12.2741 365.575 11.9361 365.419C11.598 365.26 11.3295 365.031 11.1307 364.733C10.9318 364.432 10.8324 364.068 10.8324 363.642C10.8324 363.267 10.9063 362.963 11.054 362.73C11.2017 362.494 11.3991 362.31 11.6463 362.176C11.8935 362.043 12.1662 361.943 12.4645 361.878C12.7656 361.81 13.0682 361.756 13.3722 361.716C13.7699 361.665 14.0923 361.626 14.3395 361.601C14.5895 361.572 14.7713 361.526 14.8849 361.46C15.0014 361.395 15.0597 361.281 15.0597 361.119V361.085C15.0597 360.665 14.9446 360.338 14.7145 360.105C14.4872 359.872 14.142 359.756 13.679 359.756C13.1989 359.756 12.8224 359.861 12.5497 360.071C12.277 360.281 12.0852 360.506 11.9744 360.744L11.0199 360.403C11.1903 360.006 11.4176 359.696 11.7017 359.474C11.9886 359.25 12.3011 359.094 12.6392 359.006C12.9801 358.915 13.3153 358.869 13.6449 358.869C13.8551 358.869 14.0966 358.895 14.3693 358.946C14.6449 358.994 14.9105 359.095 15.1662 359.249C15.4247 359.402 15.6392 359.634 15.8097 359.943C15.9801 360.253 16.0653 360.668 16.0653 361.188V365.5H15.0597V364.614H15.0085C14.9403 364.756 14.8267 364.908 14.6676 365.07C14.5085 365.232 14.2969 365.369 14.0327 365.483C13.7685 365.597 13.446 365.653 13.0653 365.653ZM13.2188 364.75C13.6165 364.75 13.9517 364.672 14.2244 364.516C14.5 364.359 14.7074 364.158 14.8466 363.911C14.9886 363.663 15.0597 363.403 15.0597 363.131V362.21C15.017 362.261 14.9233 362.308 14.7784 362.351C14.6364 362.391 14.4716 362.426 14.2841 362.457C14.0994 362.486 13.919 362.511 13.7429 362.534C13.5696 362.554 13.429 362.571 13.321 362.585C13.0597 362.619 12.8153 362.675 12.5881 362.751C12.3636 362.825 12.1818 362.937 12.0426 363.088C11.9063 363.236 11.8381 363.437 11.8381 363.693C11.8381 364.043 11.9673 364.307 12.2259 364.486C12.4872 364.662 12.8182 364.75 13.2188 364.75ZM18.9066 361.562V365.5H17.9009V358.955H18.8725V359.977H18.9577C19.1112 359.645 19.3441 359.378 19.6566 359.176C19.9691 358.972 20.3725 358.869 20.8668 358.869C21.31 358.869 21.6978 358.96 22.0302 359.142C22.3626 359.321 22.6211 359.594 22.8058 359.96C22.9904 360.324 23.0827 360.784 23.0827 361.341V365.5H22.0771V361.409C22.0771 360.895 21.9435 360.494 21.6765 360.207C21.4094 359.918 21.043 359.773 20.5771 359.773C20.256 359.773 19.9691 359.842 19.7163 359.982C19.4663 360.121 19.2688 360.324 19.1239 360.591C18.979 360.858 18.9066 361.182 18.9066 361.562Z" fill="black" fill-opacity="0.4"/>
<line x1="40.25" y1="8.25" x2="40.25" y2="399.75" stroke="black" stroke-opacity="0.2" stroke-width="0.5" stroke-linecap="round"/>
<line x1="103.583" y1="8.25" x2="103.583" y2="399.75" stroke="black" stroke-opacity="0.04" stroke-width="0.5" stroke-linecap="round"/>
<line x1="166.917" y1="8.25" x2="166.917" y2="399.75" stroke="black" stroke-opacity="0.04" stroke-width="0.5" stroke-linecap="round"/>
<line x1="230.25" y1="8.25" x2="230.25" y2="399.75" stroke="black" stroke-opacity="0.04" stroke-width="0.5" stroke-linecap="round"/>
<line x1="293.583" y1="8.25" x2="293.583" y2="399.75" stroke="black" stroke-opacity="0.04" stroke-width="0.5" stroke-linecap="round"/>
<line x1="356.917" y1="8.25" x2="356.917" y2="399.75" stroke="black" stroke-opacity="0.04" stroke-width="0.5" stroke-linecap="round"/>
<line x1="420.25" y1="8.25" x2="420.25" y2="399.75" stroke="black" stroke-opacity="0.04" stroke-width="0.5" stroke-linecap="round"/>
<line x1="483.583" y1="8.25" x2="483.583" y2="399.75" stroke="black" stroke-opacity="0.04" stroke-width="0.5" stroke-linecap="round"/>
<line x1="546.917" y1="8.25" x2="546.917" y2="399.75" stroke="black" stroke-opacity="0.04" stroke-width="0.5" stroke-linecap="round"/>
<line x1="610.25" y1="8.25" x2="610.25" y2="399.75" stroke="black" stroke-opacity="0.04" stroke-width="0.5" stroke-linecap="round"/>
<line x1="673.583" y1="8.25" x2="673.583" y2="399.75" stroke="black" stroke-opacity="0.04" stroke-width="0.5" stroke-linecap="round"/>
<line x1="736.917" y1="8.25" x2="736.917" y2="399.75" stroke="black" stroke-opacity="0.04" stroke-width="0.5" stroke-linecap="round"/>
<line x1="800.25" y1="8.25" x2="800.25" y2="399.75" stroke="black" stroke-opacity="0.04" stroke-width="0.5" stroke-linecap="round"/>
<path d="M40 25.3333C40 24.0949 40 23.4757 40.0684 22.9558C40.5411 19.3659 43.3659 16.5411 46.9558 16.0684C47.4757 16 48.0949 16 49.3333 16H135V34.6667H49.3333C48.0949 34.6667 47.4757 34.6667 46.9558 34.5982C43.3659 34.1256 40.5411 31.3007 40.0684 27.7109C40 27.191 40 26.5718 40 25.3333V25.3333Z" fill="#A0BCE8"/>
<rect x="135" y="16" width="95" height="18.6667" fill="#A0BCE8"/>
<rect x="230" y="16" width="95" height="18.6667" fill="#A0BCE8"/>
<path d="M325 16H410.667C411.905 16 412.524 16 413.044 16.0684C416.634 16.5411 419.459 19.3659 419.932 22.9558C420 23.4757 420 24.0949 420 25.3333V25.3333C420 26.5718 420 27.191 419.932 27.7109C419.459 31.3007 416.634 34.1256 413.044 34.5982C412.524 34.6667 411.905 34.6667 410.667 34.6667H325V16Z" fill="#A0BCE8"/>
<path d="M40 56C40 54.7615 40 54.1423 40.0684 53.6224C40.5411 50.0325 43.3659 47.2077 46.9558 46.7351C47.4757 46.6666 48.0949 46.6666 49.3333 46.6666H135V65.3333H49.3333C48.0949 65.3333 47.4757 65.3333 46.9558 65.2649C43.3659 64.7922 40.5411 61.9674 40.0684 58.3775C40 57.8576 40 57.2384 40 56V56Z" fill="#6BE6D3"/>
<rect x="135" y="46.6666" width="95" height="18.6667" fill="#6BE6D3"/>
<rect x="230" y="46.6666" width="95" height="18.6667" fill="#6BE6D3"/>
<rect x="325" y="46.6666" width="95" height="18.6667" fill="#6BE6D3"/>
<rect x="420" y="46.6666" width="95" height="18.6667" fill="#6BE6D3"/>
<rect x="515" y="46.6666" width="95" height="18.6667" fill="#6BE6D3"/>
<path d="M610 46.6666H695.667C696.905 46.6666 697.524 46.6666 698.044 46.7351C701.634 47.2077 704.459 50.0325 704.932 53.6224C705 54.1423 705 54.7615 705 56V56C705 57.2384 705 57.8576 704.932 58.3775C704.459 61.9674 701.634 64.7922 698.044 65.2649C697.524 65.3333 696.905 65.3333 695.667 65.3333H610V46.6666Z" fill="#6BE6D3"/>
<path d="M40 86.6667C40 85.4283 40 84.809 40.0684 84.2892C40.5411 80.6993 43.3659 77.8744 46.9558 77.4018C47.4757 77.3334 48.0949 77.3334 49.3333 77.3334H135V96H49.3333C48.0949 96 47.4757 96 46.9558 95.9316C43.3659 95.459 40.5411 92.6341 40.0684 89.0442C40 88.5244 40 87.9052 40 86.6667V86.6667Z" fill="#1C1C1C"/>
<rect x="135" y="77.3334" width="95" height="18.6667" fill="#1C1C1C"/>
<rect x="230" y="77.3334" width="95" height="18.6667" fill="#1C1C1C"/>
<rect x="325" y="77.3334" width="95" height="18.6667" fill="#1C1C1C"/>
<path d="M420 77.3334H505.667C506.905 77.3334 507.524 77.3334 508.044 77.4018C511.634 77.8744 514.459 80.6993 514.932 84.2892C515 84.809 515 85.4283 515 86.6667V86.6667C515 87.9052 515 88.5244 514.932 89.0442C514.459 92.6341 511.634 95.459 508.044 95.9316C507.524 96 506.905 96 505.667 96H420V77.3334Z" fill="#1C1C1C"/>
<path d="M40 117.333C40 116.095 40 115.476 40.0684 114.956C40.5411 111.366 43.3659 108.541 46.9558 108.068C47.4757 108 48.0949 108 49.3333 108H135V126.667H49.3333C48.0949 126.667 47.4757 126.667 46.9558 126.598C43.3659 126.126 40.5411 123.301 40.0684 119.711C40 119.191 40 118.572 40 117.333V117.333Z" fill="#7DBBFF"/>
<rect x="135" y="108" width="95" height="18.6667" fill="#7DBBFF"/>
<rect x="230" y="108" width="95" height="18.6667" fill="#7DBBFF"/>
<rect x="325" y="108" width="95" height="18.6667" fill="#7DBBFF"/>
<rect x="420" y="108" width="95" height="18.6667" fill="#7DBBFF"/>
<rect x="515" y="108" width="95" height="18.6667" fill="#7DBBFF"/>
<rect x="610" y="108" width="95" height="18.6667" fill="#7DBBFF"/>
<path d="M705 108H790.667C791.905 108 792.524 108 793.044 108.068C796.634 108.541 799.459 111.366 799.932 114.956C800 115.476 800 116.095 800 117.333V117.333C800 118.572 800 119.191 799.932 119.711C799.459 123.301 796.634 126.126 793.044 126.598C792.524 126.667 791.905 126.667 790.667 126.667H705V108Z" fill="#7DBBFF"/>
<path d="M40 148C40 146.762 40 146.142 40.0684 145.622C40.5411 142.033 43.3659 139.208 46.9558 138.735C47.4757 138.667 48.0949 138.667 49.3333 138.667H135V157.333H49.3333C48.0949 157.333 47.4757 157.333 46.9558 157.265C43.3659 156.792 40.5411 153.967 40.0684 150.377C40 149.858 40 149.238 40 148V148Z" fill="#B899EB"/>
<rect x="135" y="138.667" width="95" height="18.6667" fill="#B899EB"/>
<path d="M230 138.667H315.667C316.905 138.667 317.524 138.667 318.044 138.735C321.634 139.208 324.459 142.033 324.932 145.622C325 146.142 325 146.762 325 148V148C325 149.238 325 149.858 324.932 150.377C324.459 153.967 321.634 156.792 318.044 157.265C317.524 157.333 316.905 157.333 315.667 157.333H230V138.667Z" fill="#B899EB"/>
<path d="M40 178.667C40 177.428 40 176.809 40.0684 176.289C40.5411 172.699 43.3659 169.874 46.9558 169.402C47.4757 169.333 48.0949 169.333 49.3333 169.333H135V188H49.3333C48.0949 188 47.4757 188 46.9558 187.931C43.3659 187.459 40.5411 184.634 40.0684 181.044C40 180.524 40 179.905 40 178.667V178.667Z" fill="#71DD8C"/>
<rect x="135" y="169.333" width="95" height="18.6667" fill="#71DD8C"/>
<rect x="230" y="169.333" width="95" height="18.6667" fill="#71DD8C"/>
<rect x="325" y="169.333" width="95" height="18.6667" fill="#71DD8C"/>
<rect x="420" y="169.333" width="95" height="18.6667" fill="#71DD8C"/>
<path d="M515 169.333H600.667C601.905 169.333 602.524 169.333 603.044 169.402C606.634 169.874 609.459 172.699 609.932 176.289C610 176.809 610 177.428 610 178.667V178.667C610 179.905 610 180.524 609.932 181.044C609.459 184.634 606.634 187.459 603.044 187.931C602.524 188 601.905 188 600.667 188H515V169.333Z" fill="#71DD8C"/>
<path d="M40 209.333C40 208.095 40 207.476 40.0684 206.956C40.5411 203.366 43.3659 200.541 46.9558 200.068C47.4757 200 48.0949 200 49.3333 200H135V218.667H49.3333C48.0949 218.667 47.4757 218.667 46.9558 218.598C43.3659 218.126 40.5411 215.301 40.0684 211.711C40 211.191 40 210.572 40 209.333V209.333Z" fill="#A0BCE8"/>
<rect x="135" y="200" width="95" height="18.6667" fill="#A0BCE8"/>
<rect x="230" y="200" width="95" height="18.6667" fill="#A0BCE8"/>
<path d="M325 200H410.667C411.905 200 412.524 200 413.044 200.068C416.634 200.541 419.459 203.366 419.932 206.956C420 207.476 420 208.095 420 209.333V209.333C420 210.572 420 211.191 419.932 211.711C419.459 215.301 416.634 218.126 413.044 218.598C412.524 218.667 411.905 218.667 410.667 218.667H325V200Z" fill="#A0BCE8"/>
<path d="M40 240C40 238.762 40 238.142 40.0684 237.622C40.5411 234.033 43.3659 231.208 46.9558 230.735C47.4757 230.667 48.0949 230.667 49.3333 230.667H135V249.333H49.3333C48.0949 249.333 47.4757 249.333 46.9558 249.265C43.3659 248.792 40.5411 245.967 40.0684 242.378C40 241.858 40 241.238 40 240V240Z" fill="#6BE6D3"/>
<rect x="135" y="230.667" width="95" height="18.6667" fill="#6BE6D3"/>
<rect x="230" y="230.667" width="95" height="18.6667" fill="#6BE6D3"/>
<rect x="325" y="230.667" width="95" height="18.6667" fill="#6BE6D3"/>
<rect x="420" y="230.667" width="95" height="18.6667" fill="#6BE6D3"/>
<rect x="515" y="230.667" width="95" height="18.6667" fill="#6BE6D3"/>
<path d="M610 230.667H695.667C696.905 230.667 697.524 230.667 698.044 230.735C701.634 231.208 704.459 234.033 704.932 237.622C705 238.142 705 238.762 705 240V240C705 241.238 705 241.858 704.932 242.378C704.459 245.967 701.634 248.792 698.044 249.265C697.524 249.333 696.905 249.333 695.667 249.333H610V230.667Z" fill="#6BE6D3"/>
<path d="M40 270.667C40 269.428 40 268.809 40.0684 268.289C40.5411 264.699 43.3659 261.874 46.9558 261.402C47.4757 261.333 48.0949 261.333 49.3333 261.333H135V280H49.3333C48.0949 280 47.4757 280 46.9558 279.931C43.3659 279.459 40.5411 276.634 40.0684 273.044C40 272.524 40 271.905 40 270.667V270.667Z" fill="black"/>
<rect x="135" y="261.333" width="95" height="18.6667" fill="black"/>
<rect x="230" y="261.333" width="95" height="18.6667" fill="black"/>
<rect x="325" y="261.333" width="95" height="18.6667" fill="black"/>
<path d="M420 261.333H505.667C506.905 261.333 507.524 261.333 508.044 261.402C511.634 261.874 514.459 264.699 514.932 268.289C515 268.809 515 269.428 515 270.667V270.667C515 271.905 515 272.524 514.932 273.044C514.459 276.634 511.634 279.459 508.044 279.931C507.524 280 506.905 280 505.667 280H420V261.333Z" fill="black"/>
<path d="M40 301.333C40 300.095 40 299.476 40.0684 298.956C40.5411 295.366 43.3659 292.541 46.9558 292.068C47.4757 292 48.0949 292 49.3333 292H135V310.667H49.3333C48.0949 310.667 47.4757 310.667 46.9558 310.598C43.3659 310.126 40.5411 307.301 40.0684 303.711C40 303.191 40 302.572 40 301.333V301.333Z" fill="#7DBBFF"/>
<rect x="135" y="292" width="95" height="18.6667" fill="#7DBBFF"/>
<rect x="230" y="292" width="95" height="18.6667" fill="#7DBBFF"/>
<rect x="325" y="292" width="95" height="18.6667" fill="#7DBBFF"/>
<rect x="420" y="292" width="95" height="18.6667" fill="#7DBBFF"/>
<rect x="515" y="292" width="95" height="18.6667" fill="#7DBBFF"/>
<rect x="610" y="292" width="95" height="18.6667" fill="#7DBBFF"/>
<path d="M705 292H790.667C791.905 292 792.524 292 793.044 292.068C796.634 292.541 799.459 295.366 799.932 298.956C800 299.476 800 300.095 800 301.333V301.333C800 302.572 800 303.191 799.932 303.711C799.459 307.301 796.634 310.126 793.044 310.598C792.524 310.667 791.905 310.667 790.667 310.667H705V292Z" fill="#7DBBFF"/>
<path d="M40 332C40 330.762 40 330.142 40.0684 329.622C40.5411 326.033 43.3659 323.208 46.9558 322.735C47.4757 322.667 48.0949 322.667 49.3333 322.667H135V341.333H49.3333C48.0949 341.333 47.4757 341.333 46.9558 341.265C43.3659 340.792 40.5411 337.967 40.0684 334.378C40 333.858 40 333.238 40 332V332Z" fill="#B899EB"/>
<rect x="135" y="322.667" width="95" height="18.6667" fill="#B899EB"/>
<path d="M230 322.667H315.667C316.905 322.667 317.524 322.667 318.044 322.735C321.634 323.208 324.459 326.033 324.932 329.622C325 330.142 325 330.762 325 332V332C325 333.238 325 333.858 324.932 334.378C324.459 337.967 321.634 340.792 318.044 341.265C317.524 341.333 316.905 341.333 315.667 341.333H230V322.667Z" fill="#B899EB"/>
<path d="M40 362.667C40 361.428 40 360.809 40.0684 360.289C40.5411 356.699 43.3659 353.874 46.9558 353.402C47.4757 353.333 48.0949 353.333 49.3333 353.333H135V372H49.3333C48.0949 372 47.4757 372 46.9558 371.931C43.3659 371.459 40.5411 368.634 40.0684 365.044C40 364.524 40 363.905 40 362.667V362.667Z" fill="#71DD8C"/>
<rect x="135" y="353.333" width="95" height="18.6667" fill="#71DD8C"/>
<rect x="230" y="353.333" width="95" height="18.6667" fill="#71DD8C"/>
<rect x="325" y="353.333" width="95" height="18.6667" fill="#71DD8C"/>
<rect x="420" y="353.333" width="95" height="18.6667" fill="#71DD8C"/>
<path d="M515 353.333H600.667C601.905 353.333 602.524 353.333 603.044 353.402C606.634 353.874 609.459 356.699 609.932 360.289C610 360.809 610 361.428 610 362.667V362.667C610 363.905 610 364.524 609.932 365.044C609.459 368.634 606.634 371.459 603.044 371.931C602.524 372 601.905 372 600.667 372H515V353.333Z" fill="#71DD8C"/>
<path d="M50.5 396.119C49.858 396.119 49.3111 395.945 48.8594 395.595C48.4077 395.243 48.0625 394.733 47.8239 394.065C47.5852 393.395 47.4659 392.585 47.4659 391.636C47.4659 390.693 47.5852 389.888 47.8239 389.22C48.0653 388.55 48.4119 388.038 48.8636 387.686C49.3182 387.331 49.8636 387.153 50.5 387.153C51.1364 387.153 51.6804 387.331 52.1321 387.686C52.5866 388.038 52.9332 388.55 53.1719 389.22C53.4134 389.888 53.5341 390.693 53.5341 391.636C53.5341 392.585 53.4148 393.395 53.1761 394.065C52.9375 394.733 52.5923 395.243 52.1406 395.595C51.6889 395.945 51.142 396.119 50.5 396.119ZM50.5 395.182C51.1364 395.182 51.6307 394.875 51.983 394.261C52.3352 393.648 52.5114 392.773 52.5114 391.636C52.5114 390.881 52.4304 390.237 52.2685 389.706C52.1094 389.175 51.8793 388.77 51.5781 388.491C51.2798 388.213 50.9205 388.074 50.5 388.074C49.8693 388.074 49.3764 388.385 49.0213 389.007C48.6662 389.626 48.4886 390.503 48.4886 391.636C48.4886 392.392 48.5682 393.034 48.7273 393.562C48.8864 394.091 49.1151 394.493 49.4134 394.768C49.7145 395.044 50.0767 395.182 50.5 395.182Z" fill="black" fill-opacity="0.4"/>
<path d="M113.782 387.273V396H112.725V388.807H112.657C112.617 388.886 112.515 388.977 112.35 389.08C112.186 389.179 111.973 389.267 111.711 389.344C111.45 389.418 111.151 389.455 110.816 389.455V388.568C111.154 388.568 111.447 388.507 111.694 388.385C111.941 388.263 112.147 388.119 112.312 387.955C112.48 387.79 112.606 387.641 112.691 387.507C112.779 387.374 112.83 387.295 112.845 387.273H113.782ZM119.13 396.119C118.488 396.119 117.941 395.945 117.49 395.595C117.038 395.243 116.693 394.733 116.454 394.065C116.215 393.395 116.096 392.585 116.096 391.636C116.096 390.693 116.215 389.888 116.454 389.22C116.696 388.55 117.042 388.038 117.494 387.686C117.948 387.331 118.494 387.153 119.13 387.153C119.767 387.153 120.311 387.331 120.762 387.686C121.217 388.038 121.563 388.55 121.802 389.22C122.044 389.888 122.164 390.693 122.164 391.636C122.164 392.585 122.045 393.395 121.806 394.065C121.568 394.733 121.223 395.243 120.771 395.595C120.319 395.945 119.772 396.119 119.13 396.119ZM119.13 395.182C119.767 395.182 120.261 394.875 120.613 394.261C120.965 393.648 121.142 392.773 121.142 391.636C121.142 390.881 121.061 390.237 120.899 389.706C120.74 389.175 120.509 388.77 120.208 388.491C119.91 388.213 119.551 388.074 119.13 388.074C118.5 388.074 118.007 388.385 117.651 389.007C117.296 389.626 117.119 390.503 117.119 391.636C117.119 392.392 117.198 393.034 117.357 393.562C117.517 394.091 117.745 394.493 118.044 394.768C118.345 395.044 118.707 395.182 119.13 395.182ZM123.937 396V387.273H124.994V391.602H125.096L129.017 387.273H130.397L126.732 391.21L130.397 396H129.119L126.085 391.943L124.994 393.17V396H123.937Z" fill="black" fill-opacity="0.4"/>
<path d="M174.32 396V395.233L177.201 392.08C177.539 391.71 177.817 391.389 178.036 391.116C178.255 390.841 178.417 390.582 178.522 390.341C178.63 390.097 178.684 389.841 178.684 389.574C178.684 389.267 178.61 389.001 178.462 388.777C178.317 388.553 178.118 388.379 177.866 388.257C177.613 388.135 177.329 388.074 177.013 388.074C176.678 388.074 176.385 388.143 176.135 388.283C175.888 388.419 175.697 388.611 175.56 388.858C175.427 389.105 175.36 389.395 175.36 389.727H174.354C174.354 389.216 174.472 388.767 174.708 388.381C174.944 387.994 175.265 387.693 175.671 387.477C176.08 387.261 176.539 387.153 177.047 387.153C177.559 387.153 178.012 387.261 178.407 387.477C178.802 387.693 179.111 387.984 179.336 388.351C179.56 388.717 179.672 389.125 179.672 389.574C179.672 389.895 179.614 390.209 179.498 390.516C179.384 390.82 179.185 391.159 178.901 391.534C178.62 391.906 178.229 392.361 177.729 392.898L175.769 394.994V395.062H179.826V396H174.32ZM184.432 396.119C183.79 396.119 183.243 395.945 182.792 395.595C182.34 395.243 181.995 394.733 181.756 394.065C181.518 393.395 181.398 392.585 181.398 391.636C181.398 390.693 181.518 389.888 181.756 389.22C181.998 388.55 182.344 388.038 182.796 387.686C183.25 387.331 183.796 387.153 184.432 387.153C185.069 387.153 185.613 387.331 186.064 387.686C186.519 388.038 186.866 388.55 187.104 389.22C187.346 389.888 187.466 390.693 187.466 391.636C187.466 392.585 187.347 393.395 187.108 394.065C186.87 394.733 186.525 395.243 186.073 395.595C185.621 395.945 185.074 396.119 184.432 396.119ZM184.432 395.182C185.069 395.182 185.563 394.875 185.915 394.261C186.268 393.648 186.444 392.773 186.444 391.636C186.444 390.881 186.363 390.237 186.201 389.706C186.042 389.175 185.812 388.77 185.51 388.491C185.212 388.213 184.853 388.074 184.432 388.074C183.802 388.074 183.309 388.385 182.954 389.007C182.599 389.626 182.421 390.503 182.421 391.636C182.421 392.392 182.5 393.034 182.66 393.562C182.819 394.091 183.047 394.493 183.346 394.768C183.647 395.044 184.009 395.182 184.432 395.182ZM189.239 396V387.273H190.296V391.602H190.398L194.319 387.273H195.699L192.035 391.21L195.699 396H194.421L191.387 391.943L190.296 393.17V396H189.239Z" fill="black" fill-opacity="0.4"/>
<path d="M237.517 393.818H238.591C238.622 394.114 238.723 394.364 238.893 394.568C239.067 394.77 239.291 394.923 239.567 395.028C239.842 395.131 240.148 395.182 240.483 395.182C240.847 395.182 241.173 395.121 241.463 394.999C241.753 394.876 241.983 394.695 242.153 394.453C242.324 394.209 242.409 393.906 242.409 393.545C242.409 393.23 242.335 392.937 242.188 392.668C242.04 392.395 241.803 392.175 241.476 392.007C241.149 391.839 240.716 391.756 240.176 391.756H239.477V390.903L241.659 388.278V388.21H237.943V387.273H243.108V388.04L240.773 390.869V390.938C241.148 390.955 241.497 391.031 241.821 391.168C242.148 391.304 242.432 391.489 242.673 391.722C242.918 391.955 243.108 392.226 243.244 392.536C243.381 392.845 243.449 393.182 243.449 393.545C243.449 394.043 243.321 394.486 243.065 394.875C242.813 395.261 242.462 395.565 242.013 395.787C241.567 396.009 241.051 396.119 240.466 396.119C239.949 396.119 239.473 396.028 239.038 395.847C238.604 395.665 238.25 395.402 237.977 395.058C237.705 394.714 237.551 394.301 237.517 393.818ZM248.035 396.119C247.393 396.119 246.846 395.945 246.395 395.595C245.943 395.243 245.598 394.733 245.359 394.065C245.12 393.395 245.001 392.585 245.001 391.636C245.001 390.693 245.12 389.888 245.359 389.22C245.6 388.55 245.947 388.038 246.399 387.686C246.853 387.331 247.399 387.153 248.035 387.153C248.672 387.153 249.216 387.331 249.667 387.686C250.122 388.038 250.468 388.55 250.707 389.22C250.949 389.888 251.069 390.693 251.069 391.636C251.069 392.585 250.95 393.395 250.711 394.065C250.473 394.733 250.127 395.243 249.676 395.595C249.224 395.945 248.677 396.119 248.035 396.119ZM248.035 395.182C248.672 395.182 249.166 394.875 249.518 394.261C249.87 393.648 250.047 392.773 250.047 391.636C250.047 390.881 249.966 390.237 249.804 389.706C249.645 389.175 249.414 388.77 249.113 388.491C248.815 388.213 248.456 388.074 248.035 388.074C247.404 388.074 246.912 388.385 246.556 389.007C246.201 389.626 246.024 390.503 246.024 391.636C246.024 392.392 246.103 393.034 246.262 393.562C246.422 394.091 246.65 394.493 246.949 394.768C247.25 395.044 247.612 395.182 248.035 395.182ZM252.842 396V387.273H253.899V391.602H254.001L257.922 387.273H259.302L255.637 391.21L259.302 396H258.024L254.99 391.943L253.899 393.17V396H252.842Z" fill="black" fill-opacity="0.4"/>
<path d="M300.782 394.21V393.341L304.277 387.273H305.316L301.907 393.205V393.273H307.089V394.21H300.782ZM304.89 396V393.955V393.541V390.545H305.896V396H304.89ZM311.533 396.119C310.891 396.119 310.344 395.945 309.892 395.595C309.44 395.243 309.095 394.733 308.856 394.065C308.618 393.395 308.499 392.585 308.499 391.636C308.499 390.693 308.618 389.888 308.856 389.22C309.098 388.55 309.445 388.038 309.896 387.686C310.351 387.331 310.896 387.153 311.533 387.153C312.169 387.153 312.713 387.331 313.165 387.686C313.619 388.038 313.966 388.55 314.204 389.22C314.446 389.888 314.567 390.693 314.567 391.636C314.567 392.585 314.447 393.395 314.209 394.065C313.97 394.733 313.625 395.243 313.173 395.595C312.722 395.945 312.175 396.119 311.533 396.119ZM311.533 395.182C312.169 395.182 312.663 394.875 313.016 394.261C313.368 393.648 313.544 392.773 313.544 391.636C313.544 390.881 313.463 390.237 313.301 389.706C313.142 389.175 312.912 388.77 312.611 388.491C312.312 388.213 311.953 388.074 311.533 388.074C310.902 388.074 310.409 388.385 310.054 389.007C309.699 389.626 309.521 390.503 309.521 391.636C309.521 392.392 309.601 393.034 309.76 393.562C309.919 394.091 310.148 394.493 310.446 394.768C310.747 395.044 311.109 395.182 311.533 395.182ZM316.339 396V387.273H317.396V391.602H317.499L321.419 387.273H322.8L319.135 391.21L322.8 396H321.521L318.487 391.943L317.396 393.17V396H316.339Z" fill="black" fill-opacity="0.4"/>
<path d="M367.047 396.119C366.547 396.119 366.097 396.02 365.697 395.821C365.296 395.622 364.975 395.349 364.734 395.003C364.492 394.656 364.36 394.261 364.337 393.818H365.36C365.4 394.213 365.579 394.54 365.897 394.798C366.218 395.054 366.601 395.182 367.047 395.182C367.405 395.182 367.724 395.098 368.002 394.93C368.283 394.763 368.503 394.533 368.662 394.24C368.824 393.945 368.905 393.611 368.905 393.239C368.905 392.858 368.822 392.518 368.654 392.22C368.489 391.919 368.262 391.682 367.972 391.509C367.682 391.335 367.351 391.247 366.979 391.244C366.712 391.241 366.438 391.283 366.157 391.368C365.876 391.45 365.644 391.557 365.462 391.688L364.474 391.568L365.002 387.273H369.536V388.21H365.888L365.582 390.784H365.633C365.812 390.642 366.036 390.524 366.306 390.43C366.576 390.337 366.857 390.29 367.15 390.29C367.684 390.29 368.16 390.418 368.577 390.673C368.998 390.926 369.327 391.273 369.566 391.713C369.807 392.153 369.928 392.656 369.928 393.222C369.928 393.778 369.803 394.276 369.553 394.713C369.306 395.148 368.965 395.491 368.53 395.744C368.096 395.994 367.601 396.119 367.047 396.119ZM374.468 396.119C373.825 396.119 373.279 395.945 372.827 395.595C372.375 395.243 372.03 394.733 371.791 394.065C371.553 393.395 371.433 392.585 371.433 391.636C371.433 390.693 371.553 389.888 371.791 389.22C372.033 388.55 372.379 388.038 372.831 387.686C373.286 387.331 373.831 387.153 374.468 387.153C375.104 387.153 375.648 387.331 376.1 387.686C376.554 388.038 376.901 388.55 377.139 389.22C377.381 389.888 377.502 390.693 377.502 391.636C377.502 392.585 377.382 393.395 377.144 394.065C376.905 394.733 376.56 395.243 376.108 395.595C375.656 395.945 375.11 396.119 374.468 396.119ZM374.468 395.182C375.104 395.182 375.598 394.875 375.95 394.261C376.303 393.648 376.479 392.773 376.479 391.636C376.479 390.881 376.398 390.237 376.236 389.706C376.077 389.175 375.847 388.77 375.546 388.491C375.247 388.213 374.888 388.074 374.468 388.074C373.837 388.074 373.344 388.385 372.989 389.007C372.634 389.626 372.456 390.503 372.456 391.636C372.456 392.392 372.536 393.034 372.695 393.562C372.854 394.091 373.083 394.493 373.381 394.768C373.682 395.044 374.044 395.182 374.468 395.182ZM379.274 396V387.273H380.331V391.602H380.433L384.354 387.273H385.735L382.07 391.21L385.735 396H384.456L381.422 391.943L380.331 393.17V396H379.274Z" fill="black" fill-opacity="0.4"/>
<path d="M427.449 393.239C427.455 392.966 427.496 392.683 427.572 392.391C427.649 392.098 427.778 391.773 427.96 391.415C428.142 391.057 428.392 390.642 428.71 390.17L430.67 387.273H431.83L429.528 390.631C429.631 390.597 429.736 390.568 429.844 390.545C429.955 390.523 430.065 390.511 430.176 390.511C430.705 390.511 431.176 390.634 431.591 390.878C432.009 391.122 432.337 391.456 432.575 391.879C432.817 392.303 432.938 392.784 432.938 393.324C432.938 393.864 432.818 394.344 432.58 394.764C432.344 395.185 432.018 395.516 431.604 395.757C431.192 395.999 430.722 396.119 430.193 396.119C429.659 396.119 429.185 395.996 428.77 395.749C428.355 395.499 428.03 395.158 427.794 394.726C427.558 394.291 427.443 393.795 427.449 393.239ZM428.455 393.307C428.455 393.676 428.528 394.003 428.676 394.287C428.824 394.571 429.028 394.794 429.29 394.956C429.551 395.118 429.852 395.199 430.193 395.199C430.534 395.199 430.835 395.119 431.097 394.96C431.358 394.798 431.563 394.577 431.71 394.295C431.858 394.011 431.932 393.687 431.932 393.324C431.932 392.955 431.858 392.629 431.71 392.348C431.563 392.067 431.358 391.847 431.097 391.688C430.835 391.528 430.534 391.449 430.193 391.449C429.852 391.449 429.551 391.528 429.29 391.688C429.028 391.844 428.824 392.062 428.676 392.344C428.528 392.622 428.455 392.943 428.455 393.307ZM437.391 396.119C436.749 396.119 436.202 395.945 435.75 395.595C435.298 395.243 434.953 394.733 434.714 394.065C434.476 393.395 434.357 392.585 434.357 391.636C434.357 390.693 434.476 389.888 434.714 389.22C434.956 388.55 435.303 388.038 435.754 387.686C436.209 387.331 436.754 387.153 437.391 387.153C438.027 387.153 438.571 387.331 439.023 387.686C439.477 388.038 439.824 388.55 440.062 389.22C440.304 389.888 440.425 390.693 440.425 391.636C440.425 392.585 440.305 393.395 440.067 394.065C439.828 394.733 439.483 395.243 439.031 395.595C438.58 395.945 438.033 396.119 437.391 396.119ZM437.391 395.182C438.027 395.182 438.521 394.875 438.874 394.261C439.226 393.648 439.402 392.773 439.402 391.636C439.402 390.881 439.321 390.237 439.159 389.706C439 389.175 438.77 388.77 438.469 388.491C438.17 388.213 437.811 388.074 437.391 388.074C436.76 388.074 436.267 388.385 435.912 389.007C435.557 389.626 435.379 390.503 435.379 391.636C435.379 392.392 435.459 393.034 435.618 393.562C435.777 394.091 436.006 394.493 436.304 394.768C436.605 395.044 436.967 395.182 437.391 395.182ZM442.197 396V387.273H443.254V391.602H443.357L447.277 387.273H448.658L444.993 391.21L448.658 396H447.379L444.345 391.943L443.254 393.17V396H442.197Z" fill="black" fill-opacity="0.4"/>
<path d="M491.26 396L495.163 388.278V388.21H490.663V387.273H496.254V388.261L492.367 396H491.26ZM500.501 396.119C499.859 396.119 499.312 395.945 498.861 395.595C498.409 395.243 498.064 394.733 497.825 394.065C497.587 393.395 497.467 392.585 497.467 391.636C497.467 390.693 497.587 389.888 497.825 389.22C498.067 388.55 498.413 388.038 498.865 387.686C499.32 387.331 499.865 387.153 500.501 387.153C501.138 387.153 501.682 387.331 502.133 387.686C502.588 388.038 502.935 388.55 503.173 389.22C503.415 389.888 503.535 390.693 503.535 391.636C503.535 392.585 503.416 393.395 503.177 394.065C502.939 394.733 502.594 395.243 502.142 395.595C501.69 395.945 501.143 396.119 500.501 396.119ZM500.501 395.182C501.138 395.182 501.632 394.875 501.984 394.261C502.337 393.648 502.513 392.773 502.513 391.636C502.513 390.881 502.432 390.237 502.27 389.706C502.111 389.175 501.881 388.77 501.579 388.491C501.281 388.213 500.922 388.074 500.501 388.074C499.871 388.074 499.378 388.385 499.023 389.007C498.668 389.626 498.49 390.503 498.49 391.636C498.49 392.392 498.57 393.034 498.729 393.562C498.888 394.091 499.116 394.493 499.415 394.768C499.716 395.044 500.078 395.182 500.501 395.182ZM505.308 396V387.273H506.365V391.602H506.467L510.388 387.273H511.768L508.104 391.21L511.768 396H510.49L507.456 391.943L506.365 393.17V396H505.308Z" fill="black" fill-opacity="0.4"/>
<path d="M557.116 396.119C556.53 396.119 556.013 396.016 555.564 395.808C555.118 395.598 554.77 395.31 554.52 394.943C554.27 394.574 554.147 394.153 554.15 393.682C554.147 393.312 554.219 392.972 554.367 392.659C554.515 392.344 554.716 392.081 554.972 391.871C555.231 391.658 555.519 391.523 555.837 391.466V391.415C555.42 391.307 555.087 391.072 554.84 390.712C554.593 390.348 554.471 389.935 554.474 389.472C554.471 389.028 554.583 388.632 554.81 388.283C555.037 387.933 555.35 387.658 555.748 387.456C556.148 387.254 556.604 387.153 557.116 387.153C557.621 387.153 558.073 387.254 558.471 387.456C558.868 387.658 559.181 387.933 559.408 388.283C559.638 388.632 559.755 389.028 559.758 389.472C559.755 389.935 559.628 390.348 559.378 390.712C559.131 391.072 558.803 391.307 558.394 391.415V391.466C558.709 391.523 558.993 391.658 559.246 391.871C559.499 392.081 559.701 392.344 559.851 392.659C560.002 392.972 560.079 393.312 560.082 393.682C560.079 394.153 559.951 394.574 559.698 394.943C559.448 395.31 559.1 395.598 558.654 395.808C558.211 396.016 557.698 396.119 557.116 396.119ZM557.116 395.182C557.51 395.182 557.851 395.118 558.138 394.99C558.425 394.862 558.647 394.682 558.803 394.449C558.959 394.216 559.039 393.943 559.042 393.631C559.039 393.301 558.954 393.01 558.786 392.757C558.618 392.504 558.39 392.305 558.1 392.161C557.813 392.016 557.485 391.943 557.116 391.943C556.743 391.943 556.411 392.016 556.118 392.161C555.829 392.305 555.6 392.504 555.432 392.757C555.268 393.01 555.187 393.301 555.189 393.631C555.187 393.943 555.262 394.216 555.415 394.449C555.572 394.682 555.795 394.862 556.084 394.99C556.374 395.118 556.718 395.182 557.116 395.182ZM557.116 391.04C557.428 391.04 557.705 390.977 557.947 390.852C558.191 390.727 558.383 390.553 558.522 390.328C558.661 390.104 558.732 389.841 558.735 389.54C558.732 389.244 558.662 388.987 558.526 388.768C558.39 388.547 558.201 388.376 557.959 388.257C557.718 388.135 557.437 388.074 557.116 388.074C556.789 388.074 556.503 388.135 556.259 388.257C556.015 388.376 555.826 388.547 555.692 388.768C555.559 388.987 555.493 389.244 555.496 389.54C555.493 389.841 555.56 390.104 555.697 390.328C555.836 390.553 556.028 390.727 556.272 390.852C556.516 390.977 556.797 391.04 557.116 391.04ZM564.561 396.119C563.919 396.119 563.372 395.945 562.921 395.595C562.469 395.243 562.124 394.733 561.885 394.065C561.647 393.395 561.527 392.585 561.527 391.636C561.527 390.693 561.647 389.888 561.885 389.22C562.127 388.55 562.473 388.038 562.925 387.686C563.379 387.331 563.925 387.153 564.561 387.153C565.198 387.153 565.742 387.331 566.193 387.686C566.648 388.038 566.995 388.55 567.233 389.22C567.475 389.888 567.595 390.693 567.595 391.636C567.595 392.585 567.476 393.395 567.237 394.065C566.999 394.733 566.654 395.243 566.202 395.595C565.75 395.945 565.203 396.119 564.561 396.119ZM564.561 395.182C565.198 395.182 565.692 394.875 566.044 394.261C566.397 393.648 566.573 392.773 566.573 391.636C566.573 390.881 566.492 390.237 566.33 389.706C566.171 389.175 565.941 388.77 565.639 388.491C565.341 388.213 564.982 388.074 564.561 388.074C563.931 388.074 563.438 388.385 563.083 389.007C562.727 389.626 562.55 390.503 562.55 391.636C562.55 392.392 562.629 393.034 562.789 393.562C562.948 394.091 563.176 394.493 563.475 394.768C563.776 395.044 564.138 395.182 564.561 395.182ZM569.368 396V387.273H570.425V391.602H570.527L574.448 387.273H575.828L572.164 391.21L575.828 396H574.55L571.516 391.943L570.425 393.17V396H569.368Z" fill="black" fill-opacity="0.4"/>
<path d="M617.449 389.949C617.449 389.409 617.567 388.929 617.803 388.509C618.041 388.088 618.366 387.757 618.778 387.516C619.193 387.274 619.665 387.153 620.193 387.153C620.727 387.153 621.202 387.278 621.616 387.528C622.031 387.776 622.357 388.116 622.592 388.551C622.828 388.983 622.943 389.477 622.938 390.034C622.932 390.307 622.891 390.589 622.814 390.882C622.737 391.175 622.608 391.5 622.426 391.858C622.244 392.216 621.994 392.631 621.676 393.102L619.716 396H618.557L620.858 392.642C620.756 392.676 620.649 392.705 620.538 392.727C620.43 392.75 620.321 392.761 620.21 392.761C619.682 392.761 619.209 392.639 618.791 392.395C618.376 392.151 618.048 391.817 617.807 391.393C617.568 390.97 617.449 390.489 617.449 389.949ZM618.455 389.949C618.455 390.318 618.528 390.643 618.676 390.925C618.824 391.206 619.028 391.426 619.29 391.585C619.551 391.744 619.852 391.824 620.193 391.824C620.534 391.824 620.835 391.746 621.097 391.589C621.358 391.43 621.563 391.212 621.71 390.933C621.858 390.652 621.932 390.33 621.932 389.966C621.932 389.597 621.858 389.27 621.71 388.986C621.563 388.702 621.358 388.479 621.097 388.317C620.835 388.155 620.534 388.074 620.193 388.074C619.852 388.074 619.551 388.155 619.29 388.317C619.028 388.476 618.824 388.697 618.676 388.982C618.528 389.263 618.455 389.585 618.455 389.949ZM627.391 396.119C626.749 396.119 626.202 395.945 625.75 395.595C625.298 395.243 624.953 394.733 624.714 394.065C624.476 393.395 624.357 392.585 624.357 391.636C624.357 390.693 624.476 389.888 624.714 389.22C624.956 388.55 625.303 388.038 625.754 387.686C626.209 387.331 626.754 387.153 627.391 387.153C628.027 387.153 628.571 387.331 629.023 387.686C629.477 388.038 629.824 388.55 630.062 389.22C630.304 389.888 630.425 390.693 630.425 391.636C630.425 392.585 630.305 393.395 630.067 394.065C629.828 394.733 629.483 395.243 629.031 395.595C628.58 395.945 628.033 396.119 627.391 396.119ZM627.391 395.182C628.027 395.182 628.521 394.875 628.874 394.261C629.226 393.648 629.402 392.773 629.402 391.636C629.402 390.881 629.321 390.237 629.159 389.706C629 389.175 628.77 388.77 628.469 388.491C628.17 388.213 627.811 388.074 627.391 388.074C626.76 388.074 626.267 388.385 625.912 389.007C625.557 389.626 625.379 390.503 625.379 391.636C625.379 392.392 625.459 393.034 625.618 393.562C625.777 394.091 626.006 394.493 626.304 394.768C626.605 395.044 626.967 395.182 627.391 395.182ZM632.197 396V387.273H633.254V391.602H633.357L637.277 387.273H638.658L634.993 391.21L638.658 396H637.379L634.345 391.943L633.254 393.17V396H632.197Z" fill="black" fill-opacity="0.4"/>
<path d="M683.782 387.273V396H682.725V388.807H682.657C682.617 388.886 682.515 388.977 682.35 389.08C682.186 389.179 681.973 389.267 681.711 389.344C681.45 389.418 681.152 389.455 680.816 389.455V388.568C681.154 388.568 681.447 388.507 681.694 388.385C681.941 388.263 682.147 388.119 682.312 387.955C682.48 387.79 682.606 387.641 682.691 387.507C682.779 387.374 682.831 387.295 682.845 387.273H683.782ZM689.13 396.119C688.488 396.119 687.941 395.945 687.49 395.595C687.038 395.243 686.693 394.733 686.454 394.065C686.215 393.395 686.096 392.585 686.096 391.636C686.096 390.693 686.215 389.888 686.454 389.22C686.696 388.55 687.042 388.038 687.494 387.686C687.948 387.331 688.494 387.153 689.13 387.153C689.767 387.153 690.311 387.331 690.762 387.686C691.217 388.038 691.563 388.55 691.802 389.22C692.044 389.888 692.164 390.693 692.164 391.636C692.164 392.585 692.045 393.395 691.806 394.065C691.568 394.733 691.223 395.243 690.771 395.595C690.319 395.945 689.772 396.119 689.13 396.119ZM689.13 395.182C689.767 395.182 690.261 394.875 690.613 394.261C690.965 393.648 691.142 392.773 691.142 391.636C691.142 390.881 691.061 390.237 690.899 389.706C690.74 389.175 690.51 388.77 690.208 388.491C689.91 388.213 689.551 388.074 689.13 388.074C688.5 388.074 688.007 388.385 687.652 389.007C687.296 389.626 687.119 390.503 687.119 391.636C687.119 392.392 687.198 393.034 687.358 393.562C687.517 394.091 687.745 394.493 688.044 394.768C688.345 395.044 688.707 395.182 689.13 395.182ZM696.63 396.119C695.988 396.119 695.441 395.945 694.99 395.595C694.538 395.243 694.193 394.733 693.954 394.065C693.715 393.395 693.596 392.585 693.596 391.636C693.596 390.693 693.715 389.888 693.954 389.22C694.196 388.55 694.542 388.038 694.994 387.686C695.448 387.331 695.994 387.153 696.63 387.153C697.267 387.153 697.811 387.331 698.262 387.686C698.717 388.038 699.063 388.55 699.302 389.22C699.544 389.888 699.664 390.693 699.664 391.636C699.664 392.585 699.545 393.395 699.306 394.065C699.068 394.733 698.723 395.243 698.271 395.595C697.819 395.945 697.272 396.119 696.63 396.119ZM696.63 395.182C697.267 395.182 697.761 394.875 698.113 394.261C698.465 393.648 698.642 392.773 698.642 391.636C698.642 390.881 698.561 390.237 698.399 389.706C698.24 389.175 698.01 388.77 697.708 388.491C697.41 388.213 697.051 388.074 696.63 388.074C696 388.074 695.507 388.385 695.152 389.007C694.796 389.626 694.619 390.503 694.619 391.636C694.619 392.392 694.698 393.034 694.858 393.562C695.017 394.091 695.245 394.493 695.544 394.768C695.845 395.044 696.207 395.182 696.63 395.182ZM701.437 396V387.273H702.494V391.602H702.596L706.517 387.273H707.897L704.233 391.21L707.897 396H706.619L703.585 391.943L702.494 393.17V396H701.437Z" fill="black" fill-opacity="0.4"/>
<path d="M747.116 387.273V396H746.059V388.807H745.991C745.951 388.886 745.849 388.977 745.684 389.08C745.519 389.179 745.306 389.267 745.045 389.344C744.783 389.418 744.485 389.455 744.15 389.455V388.568C744.488 388.568 744.78 388.507 745.028 388.385C745.275 388.263 745.481 388.119 745.645 387.955C745.813 387.79 745.939 387.641 746.025 387.507C746.113 387.374 746.164 387.295 746.178 387.273H747.116ZM752.412 387.273V396H751.356V388.807H751.287C751.248 388.886 751.145 388.977 750.981 389.08C750.816 389.179 750.603 389.267 750.341 389.344C750.08 389.418 749.782 389.455 749.447 389.455V388.568C749.785 388.568 750.077 388.507 750.324 388.385C750.572 388.263 750.778 388.119 750.942 387.955C751.11 387.79 751.236 387.641 751.322 387.507C751.41 387.374 751.461 387.295 751.475 387.273H752.412ZM757.76 396.119C757.118 396.119 756.572 395.945 756.12 395.595C755.668 395.243 755.323 394.733 755.084 394.065C754.846 393.395 754.726 392.585 754.726 391.636C754.726 390.693 754.846 389.888 755.084 389.22C755.326 388.55 755.672 388.038 756.124 387.686C756.579 387.331 757.124 387.153 757.76 387.153C758.397 387.153 758.941 387.331 759.393 387.686C759.847 388.038 760.194 388.55 760.432 389.22C760.674 389.888 760.795 390.693 760.795 391.636C760.795 392.585 760.675 393.395 760.437 394.065C760.198 394.733 759.853 395.243 759.401 395.595C758.949 395.945 758.403 396.119 757.76 396.119ZM757.76 395.182C758.397 395.182 758.891 394.875 759.243 394.261C759.596 393.648 759.772 392.773 759.772 391.636C759.772 390.881 759.691 390.237 759.529 389.706C759.37 389.175 759.14 388.77 758.839 388.491C758.54 388.213 758.181 388.074 757.76 388.074C757.13 388.074 756.637 388.385 756.282 389.007C755.927 389.626 755.749 390.503 755.749 391.636C755.749 392.392 755.829 393.034 755.988 393.562C756.147 394.091 756.376 394.493 756.674 394.768C756.975 395.044 757.337 395.182 757.76 395.182ZM762.567 396V387.273H763.624V391.602H763.726L767.647 387.273H769.028L765.363 391.21L769.028 396H767.749L764.715 391.943L763.624 393.17V396H762.567Z" fill="black" fill-opacity="0.4"/>
</svg>
