<svg width="800" height="400" viewBox="0 0 800 400" fill="none" xmlns="http://www.w3.org/2000/svg">
<path d="M6.77699 11.2727V20H5.72017V12.8068H5.65199C5.61222 12.8864 5.50994 12.9773 5.34517 13.0795C5.1804 13.179 4.96733 13.267 4.70597 13.3438C4.4446 13.4176 4.14631 13.4545 3.81108 13.4545V12.5682C4.14915 12.5682 4.44176 12.5071 4.68892 12.3849C4.93608 12.2628 5.14205 12.1193 5.30682 11.9545C5.47443 11.7898 5.60085 11.6406 5.68608 11.5071C5.77415 11.3736 5.82528 11.2955 5.83949 11.2727H6.77699ZM12.0739 11.2727V20H11.017V12.8068H10.9489C10.9091 12.8864 10.8068 12.9773 10.642 13.0795C10.4773 13.179 10.2642 13.267 10.0028 13.3438C9.74148 13.4176 9.44318 13.4545 9.10795 13.4545V12.5682C9.44602 12.5682 9.73864 12.5071 9.9858 12.3849C10.233 12.2628 10.4389 12.1193 10.6037 11.9545C10.7713 11.7898 10.8977 11.6406 10.983 11.5071C11.071 11.3736 11.1222 11.2955 11.1364 11.2727H12.0739ZM17.4219 20.1193C16.7798 20.1193 16.233 19.9446 15.7812 19.5952C15.3295 19.2429 14.9844 18.733 14.7457 18.0653C14.5071 17.3949 14.3878 16.5852 14.3878 15.6364C14.3878 14.6932 14.5071 13.8878 14.7457 13.2202C14.9872 12.5497 15.3338 12.0384 15.7855 11.6861C16.2401 11.331 16.7855 11.1534 17.4219 11.1534C18.0582 11.1534 18.6023 11.331 19.054 11.6861C19.5085 12.0384 19.8551 12.5497 20.0938 13.2202C20.3352 13.8878 20.456 14.6932 20.456 15.6364C20.456 16.5852 20.3366 17.3949 20.098 18.0653C19.8594 18.733 19.5142 19.2429 19.0625 19.5952C18.6108 19.9446 18.0639 20.1193 17.4219 20.1193ZM17.4219 19.1818C18.0582 19.1818 18.5526 18.875 18.9048 18.2614C19.2571 17.6477 19.4332 16.7727 19.4332 15.6364C19.4332 14.8807 19.3523 14.2372 19.1903 13.706C19.0313 13.1747 18.8011 12.7699 18.5 12.4915C18.2017 12.2131 17.8423 12.0739 17.4219 12.0739C16.7912 12.0739 16.2983 12.3849 15.9432 13.0071C15.5881 13.6264 15.4105 14.5028 15.4105 15.6364C15.4105 16.392 15.4901 17.0341 15.6491 17.5625C15.8082 18.0909 16.0369 18.4929 16.3352 18.7685C16.6364 19.044 16.9986 19.1818 17.4219 19.1818ZM22.2287 20V11.2727H23.2855V15.6023H23.3878L27.3082 11.2727H28.6889L25.0241 15.2102L28.6889 20H27.4105L24.3764 15.9432L23.2855 17.1705V20H22.2287Z" fill="black" fill-opacity="0.4"/>
<path d="M4.57386 43.2727V52H3.51705V44.8068H3.44886C3.40909 44.8864 3.30682 44.9773 3.14205 45.0795C2.97727 45.179 2.7642 45.267 2.50284 45.3438C2.24148 45.4176 1.94318 45.4545 1.60795 45.4545V44.5682C1.94602 44.5682 2.23864 44.5071 2.4858 44.3849C2.73295 44.2628 2.93892 44.1193 3.10369 43.9545C3.27131 43.7898 3.39773 43.6406 3.48295 43.5071C3.57102 43.3736 3.62216 43.2955 3.63636 43.2727H4.57386ZM9.92188 52.1193C9.27983 52.1193 8.73295 51.9446 8.28125 51.5952C7.82955 51.2429 7.48438 50.733 7.24574 50.0653C7.0071 49.3949 6.88778 48.5852 6.88778 47.6364C6.88778 46.6932 7.0071 45.8878 7.24574 45.2202C7.48722 44.5497 7.83381 44.0384 8.28551 43.6861C8.74006 43.331 9.28551 43.1534 9.92188 43.1534C10.5582 43.1534 11.1023 43.331 11.554 43.6861C12.0085 44.0384 12.3551 44.5497 12.5938 45.2202C12.8352 45.8878 12.956 46.6932 12.956 47.6364C12.956 48.5852 12.8366 49.3949 12.598 50.0653C12.3594 50.733 12.0142 51.2429 11.5625 51.5952C11.1108 51.9446 10.5639 52.1193 9.92188 52.1193ZM9.92188 51.1818C10.5582 51.1818 11.0526 50.875 11.4048 50.2614C11.7571 49.6477 11.9332 48.7727 11.9332 47.6364C11.9332 46.8807 11.8523 46.2372 11.6903 45.706C11.5313 45.1747 11.3011 44.7699 11 44.4915C10.7017 44.2131 10.3423 44.0739 9.92188 44.0739C9.29119 44.0739 8.7983 44.3849 8.44318 45.0071C8.08807 45.6264 7.91051 46.5028 7.91051 47.6364C7.91051 48.392 7.99006 49.0341 8.14915 49.5625C8.30824 50.0909 8.53693 50.4929 8.83523 50.7685C9.13636 51.044 9.49858 51.1818 9.92188 51.1818ZM17.4219 52.1193C16.7798 52.1193 16.233 51.9446 15.7812 51.5952C15.3295 51.2429 14.9844 50.733 14.7457 50.0653C14.5071 49.3949 14.3878 48.5852 14.3878 47.6364C14.3878 46.6932 14.5071 45.8878 14.7457 45.2202C14.9872 44.5497 15.3338 44.0384 15.7855 43.6861C16.2401 43.331 16.7855 43.1534 17.4219 43.1534C18.0582 43.1534 18.6023 43.331 19.054 43.6861C19.5085 44.0384 19.8551 44.5497 20.0938 45.2202C20.3352 45.8878 20.456 46.6932 20.456 47.6364C20.456 48.5852 20.3366 49.3949 20.098 50.0653C19.8594 50.733 19.5142 51.2429 19.0625 51.5952C18.6108 51.9446 18.0639 52.1193 17.4219 52.1193ZM17.4219 51.1818C18.0582 51.1818 18.5526 50.875 18.9048 50.2614C19.2571 49.6477 19.4332 48.7727 19.4332 47.6364C19.4332 46.8807 19.3523 46.2372 19.1903 45.706C19.0313 45.1747 18.8011 44.7699 18.5 44.4915C18.2017 44.2131 17.8423 44.0739 17.4219 44.0739C16.7912 44.0739 16.2983 44.3849 15.9432 45.0071C15.5881 45.6264 15.4105 46.5028 15.4105 47.6364C15.4105 48.392 15.4901 49.0341 15.6491 49.5625C15.8082 50.0909 16.0369 50.4929 16.3352 50.7685C16.6364 51.044 16.9986 51.1818 17.4219 51.1818ZM22.2287 52V43.2727H23.2855V47.6023H23.3878L27.3082 43.2727H28.6889L25.0241 47.2102L28.6889 52H27.4105L24.3764 47.9432L23.2855 49.1705V52H22.2287Z" fill="black" fill-opacity="0.4"/>
<path d="M7.48011 77.9489C7.48011 77.4091 7.59801 76.929 7.83381 76.5085C8.07244 76.0881 8.39773 75.7571 8.80966 75.5156C9.22443 75.2741 9.69602 75.1534 10.2244 75.1534C10.7585 75.1534 11.233 75.2784 11.6477 75.5284C12.0625 75.7756 12.3878 76.1165 12.6236 76.5511C12.8594 76.983 12.9744 77.4773 12.9688 78.0341C12.9631 78.3068 12.9219 78.5895 12.8452 78.8821C12.7685 79.1747 12.6392 79.5 12.4574 79.858C12.2756 80.2159 12.0256 80.6307 11.7074 81.1023L9.74716 84H8.58807L10.8892 80.642C10.7869 80.6761 10.6804 80.7045 10.5696 80.7273C10.4616 80.75 10.3523 80.7614 10.2415 80.7614C9.71307 80.7614 9.24006 80.6392 8.82244 80.3949C8.40767 80.1506 8.07955 79.8168 7.83807 79.3935C7.59943 78.9702 7.48011 78.4886 7.48011 77.9489ZM8.4858 77.9489C8.4858 78.3182 8.55966 78.6435 8.70739 78.9247C8.85511 79.206 9.05966 79.4261 9.32102 79.5852C9.58239 79.7443 9.88352 79.8239 10.2244 79.8239C10.5653 79.8239 10.8665 79.7457 11.1278 79.5895C11.3892 79.4304 11.5938 79.2116 11.7415 78.9332C11.8892 78.652 11.9631 78.3295 11.9631 77.9659C11.9631 77.5966 11.8892 77.2699 11.7415 76.9858C11.5938 76.7017 11.3892 76.4787 11.1278 76.3168C10.8665 76.1548 10.5653 76.0739 10.2244 76.0739C9.88352 76.0739 9.58239 76.1548 9.32102 76.3168C9.05966 76.4759 8.85511 76.6974 8.70739 76.9815C8.55966 77.2628 8.4858 77.5852 8.4858 77.9489ZM17.4219 84.1193C16.7798 84.1193 16.233 83.9446 15.7812 83.5952C15.3295 83.2429 14.9844 82.733 14.7457 82.0653C14.5071 81.3949 14.3878 80.5852 14.3878 79.6364C14.3878 78.6932 14.5071 77.8878 14.7457 77.2202C14.9872 76.5497 15.3338 76.0384 15.7855 75.6861C16.2401 75.331 16.7855 75.1534 17.4219 75.1534C18.0582 75.1534 18.6023 75.331 19.054 75.6861C19.5085 76.0384 19.8551 76.5497 20.0938 77.2202C20.3352 77.8878 20.456 78.6932 20.456 79.6364C20.456 80.5852 20.3366 81.3949 20.098 82.0653C19.8594 82.733 19.5142 83.2429 19.0625 83.5952C18.6108 83.9446 18.0639 84.1193 17.4219 84.1193ZM17.4219 83.1818C18.0582 83.1818 18.5526 82.875 18.9048 82.2614C19.2571 81.6477 19.4332 80.7727 19.4332 79.6364C19.4332 78.8807 19.3523 78.2372 19.1903 77.706C19.0313 77.1747 18.8011 76.7699 18.5 76.4915C18.2017 76.2131 17.8423 76.0739 17.4219 76.0739C16.7912 76.0739 16.2983 76.3849 15.9432 77.0071C15.5881 77.6264 15.4105 78.5028 15.4105 79.6364C15.4105 80.392 15.4901 81.0341 15.6491 81.5625C15.8082 82.0909 16.0369 82.4929 16.3352 82.7685C16.6364 83.044 16.9986 83.1818 17.4219 83.1818ZM22.2287 84V75.2727H23.2855V79.6023H23.3878L27.3082 75.2727H28.6889L25.0241 79.2102L28.6889 84H27.4105L24.3764 79.9432L23.2855 81.1705V84H22.2287Z" fill="black" fill-opacity="0.4"/>
<path d="M9.97621 116.119C9.39098 116.119 8.87393 116.016 8.42507 115.808C7.97905 115.598 7.63104 115.31 7.38104 114.943C7.13104 114.574 7.00746 114.153 7.0103 113.682C7.00746 113.312 7.0799 112.972 7.22763 112.659C7.37536 112.344 7.57706 112.081 7.83274 111.871C8.09126 111.658 8.37962 111.523 8.6978 111.466V111.415C8.28018 111.307 7.9478 111.072 7.70064 110.712C7.45348 110.348 7.33132 109.935 7.33416 109.472C7.33132 109.028 7.44354 108.632 7.67081 108.283C7.89808 107.933 8.21058 107.658 8.60831 107.456C9.00888 107.254 9.46484 107.153 9.97621 107.153C10.4819 107.153 10.9336 107.254 11.3313 107.456C11.729 107.658 12.0415 107.933 12.2688 108.283C12.4989 108.632 12.6154 109.028 12.6183 109.472C12.6154 109.935 12.489 110.348 12.239 110.712C11.9918 111.072 11.6637 111.307 11.2546 111.415V111.466C11.57 111.523 11.854 111.658 12.1069 111.871C12.3597 112.081 12.5614 112.344 12.712 112.659C12.8626 112.972 12.9393 113.312 12.9421 113.682C12.9393 114.153 12.8114 114.574 12.5586 114.943C12.3086 115.31 11.9606 115.598 11.5146 115.808C11.0714 116.016 10.5586 116.119 9.97621 116.119ZM9.97621 115.182C10.3711 115.182 10.712 115.118 10.9989 114.99C11.2859 114.862 11.5075 114.682 11.6637 114.449C11.82 114.216 11.8995 113.943 11.9023 113.631C11.8995 113.301 11.8143 113.01 11.6467 112.757C11.479 112.504 11.2504 112.305 10.9606 112.161C10.6737 112.016 10.3455 111.943 9.97621 111.943C9.60405 111.943 9.27166 112.016 8.97905 112.161C8.68928 112.305 8.46058 112.504 8.29297 112.757C8.1282 113.01 8.04723 113.301 8.05007 113.631C8.04723 113.943 8.12251 114.216 8.27592 114.449C8.43217 114.682 8.65518 114.862 8.94496 114.99C9.23473 115.118 9.57848 115.182 9.97621 115.182ZM9.97621 111.04C10.2887 111.04 10.5657 110.977 10.8072 110.852C11.0515 110.727 11.2433 110.553 11.3825 110.328C11.5217 110.104 11.5927 109.841 11.5955 109.54C11.5927 109.244 11.5231 108.987 11.3867 108.768C11.2504 108.547 11.0614 108.376 10.82 108.257C10.5785 108.135 10.2972 108.074 9.97621 108.074C9.6495 108.074 9.36399 108.135 9.11967 108.257C8.87536 108.376 8.68643 108.547 8.55291 108.768C8.41939 108.987 8.35405 109.244 8.35689 109.54C8.35405 109.841 8.42081 110.104 8.55717 110.328C8.69638 110.553 8.88814 110.727 9.13246 110.852C9.37678 110.977 9.65803 111.04 9.97621 111.04ZM17.4219 116.119C16.7798 116.119 16.233 115.945 15.7812 115.595C15.3295 115.243 14.9844 114.733 14.7457 114.065C14.5071 113.395 14.3878 112.585 14.3878 111.636C14.3878 110.693 14.5071 109.888 14.7457 109.22C14.9872 108.55 15.3338 108.038 15.7855 107.686C16.2401 107.331 16.7855 107.153 17.4219 107.153C18.0582 107.153 18.6023 107.331 19.054 107.686C19.5085 108.038 19.8551 108.55 20.0938 109.22C20.3352 109.888 20.456 110.693 20.456 111.636C20.456 112.585 20.3366 113.395 20.098 114.065C19.8594 114.733 19.5142 115.243 19.0625 115.595C18.6108 115.945 18.0639 116.119 17.4219 116.119ZM17.4219 115.182C18.0582 115.182 18.5526 114.875 18.9048 114.261C19.2571 113.648 19.4332 112.773 19.4332 111.636C19.4332 110.881 19.3523 110.237 19.1903 109.706C19.0313 109.175 18.8011 108.77 18.5 108.491C18.2017 108.213 17.8423 108.074 17.4219 108.074C16.7912 108.074 16.2983 108.385 15.9432 109.007C15.5881 109.626 15.4105 110.503 15.4105 111.636C15.4105 112.392 15.4901 113.034 15.6491 113.562C15.8082 114.091 16.0369 114.493 16.3352 114.768C16.6364 115.044 16.9986 115.182 17.4219 115.182ZM22.2287 116V107.273H23.2855V111.602H23.3878L27.3082 107.273H28.6889L25.0241 111.21L28.6889 116H27.4105L24.3764 111.943L23.2855 113.17V116H22.2287Z" fill="black" fill-opacity="0.4"/>
<path d="M8.18004 148L12.0835 140.278V140.21H7.58345V139.273H13.1744V140.261L9.288 148H8.18004ZM17.4219 148.119C16.7798 148.119 16.233 147.945 15.7812 147.595C15.3295 147.243 14.9844 146.733 14.7457 146.065C14.5071 145.395 14.3878 144.585 14.3878 143.636C14.3878 142.693 14.5071 141.888 14.7457 141.22C14.9872 140.55 15.3338 140.038 15.7855 139.686C16.2401 139.331 16.7855 139.153 17.4219 139.153C18.0582 139.153 18.6023 139.331 19.054 139.686C19.5085 140.038 19.8551 140.55 20.0938 141.22C20.3352 141.888 20.456 142.693 20.456 143.636C20.456 144.585 20.3366 145.395 20.098 146.065C19.8594 146.733 19.5142 147.243 19.0625 147.595C18.6108 147.945 18.0639 148.119 17.4219 148.119ZM17.4219 147.182C18.0582 147.182 18.5526 146.875 18.9048 146.261C19.2571 145.648 19.4332 144.773 19.4332 143.636C19.4332 142.881 19.3523 142.237 19.1903 141.706C19.0313 141.175 18.8011 140.77 18.5 140.491C18.2017 140.213 17.8423 140.074 17.4219 140.074C16.7912 140.074 16.2983 140.385 15.9432 141.007C15.5881 141.626 15.4105 142.503 15.4105 143.636C15.4105 144.392 15.4901 145.034 15.6491 145.562C15.8082 146.091 16.0369 146.493 16.3352 146.768C16.6364 147.044 16.9986 147.182 17.4219 147.182ZM22.2287 148V139.273H23.2855V143.602H23.3878L27.3082 139.273H28.6889L25.0241 143.21L28.6889 148H27.4105L24.3764 143.943L23.2855 145.17V148H22.2287Z" fill="black" fill-opacity="0.4"/>
<path d="M7.48011 177.239C7.4858 176.966 7.52699 176.683 7.60369 176.391C7.6804 176.098 7.80966 175.773 7.99148 175.415C8.1733 175.057 8.4233 174.642 8.74148 174.17L10.7017 171.273H11.8608L9.55966 174.631C9.66193 174.597 9.76705 174.568 9.875 174.545C9.9858 174.523 10.0966 174.511 10.2074 174.511C10.7358 174.511 11.2074 174.634 11.6222 174.878C12.0398 175.122 12.3679 175.456 12.6065 175.879C12.848 176.303 12.9688 176.784 12.9688 177.324C12.9688 177.864 12.8494 178.344 12.6108 178.764C12.375 179.185 12.0497 179.516 11.6349 179.757C11.223 179.999 10.7528 180.119 10.2244 180.119C9.69034 180.119 9.21591 179.996 8.80114 179.749C8.38636 179.499 8.06108 179.158 7.82528 178.726C7.58949 178.291 7.47443 177.795 7.48011 177.239ZM8.4858 177.307C8.4858 177.676 8.55966 178.003 8.70739 178.287C8.85511 178.571 9.05966 178.794 9.32102 178.956C9.58239 179.118 9.88352 179.199 10.2244 179.199C10.5653 179.199 10.8665 179.119 11.1278 178.96C11.3892 178.798 11.5938 178.577 11.7415 178.295C11.8892 178.011 11.9631 177.687 11.9631 177.324C11.9631 176.955 11.8892 176.629 11.7415 176.348C11.5938 176.067 11.3892 175.847 11.1278 175.688C10.8665 175.528 10.5653 175.449 10.2244 175.449C9.88352 175.449 9.58239 175.528 9.32102 175.688C9.05966 175.844 8.85511 176.062 8.70739 176.344C8.55966 176.622 8.4858 176.943 8.4858 177.307ZM17.4219 180.119C16.7798 180.119 16.233 179.945 15.7812 179.595C15.3295 179.243 14.9844 178.733 14.7457 178.065C14.5071 177.395 14.3878 176.585 14.3878 175.636C14.3878 174.693 14.5071 173.888 14.7457 173.22C14.9872 172.55 15.3338 172.038 15.7855 171.686C16.2401 171.331 16.7855 171.153 17.4219 171.153C18.0582 171.153 18.6023 171.331 19.054 171.686C19.5085 172.038 19.8551 172.55 20.0938 173.22C20.3352 173.888 20.456 174.693 20.456 175.636C20.456 176.585 20.3366 177.395 20.098 178.065C19.8594 178.733 19.5142 179.243 19.0625 179.595C18.6108 179.945 18.0639 180.119 17.4219 180.119ZM17.4219 179.182C18.0582 179.182 18.5526 178.875 18.9048 178.261C19.2571 177.648 19.4332 176.773 19.4332 175.636C19.4332 174.881 19.3523 174.237 19.1903 173.706C19.0313 173.175 18.8011 172.77 18.5 172.491C18.2017 172.213 17.8423 172.074 17.4219 172.074C16.7912 172.074 16.2983 172.385 15.9432 173.007C15.5881 173.626 15.4105 174.503 15.4105 175.636C15.4105 176.392 15.4901 177.034 15.6491 177.562C15.8082 178.091 16.0369 178.493 16.3352 178.768C16.6364 179.044 16.9986 179.182 17.4219 179.182ZM22.2287 180V171.273H23.2855V175.602H23.3878L27.3082 171.273H28.6889L25.0241 175.21L28.6889 180H27.4105L24.3764 175.943L23.2855 177.17V180H22.2287Z" fill="black" fill-opacity="0.4"/>
<path d="M10.0018 212.119C9.50178 212.119 9.05149 212.02 8.65092 211.821C8.25036 211.622 7.92933 211.349 7.68786 211.003C7.44638 210.656 7.31428 210.261 7.29155 209.818H8.31428C8.35405 210.213 8.53303 210.54 8.85121 210.798C9.17223 211.054 9.55575 211.182 10.0018 211.182C10.3597 211.182 10.6779 211.098 10.9563 210.93C11.2376 210.763 11.4577 210.533 11.6168 210.24C11.7788 209.945 11.8597 209.611 11.8597 209.239C11.8597 208.858 11.7759 208.518 11.6083 208.22C11.4435 207.919 11.2163 207.682 10.9265 207.509C10.6367 207.335 10.3058 207.247 9.93359 207.244C9.66655 207.241 9.3924 207.283 9.11115 207.368C8.8299 207.45 8.59837 207.557 8.41655 207.688L7.42791 207.568L7.95632 203.273H12.4904V204.21H8.84268L8.53587 206.784H8.587C8.76598 206.642 8.99041 206.524 9.2603 206.43C9.53018 206.337 9.81143 206.29 10.104 206.29C10.6381 206.29 11.114 206.418 11.5316 206.673C11.9521 206.926 12.2816 207.273 12.5202 207.713C12.7617 208.153 12.8825 208.656 12.8825 209.222C12.8825 209.778 12.7575 210.276 12.5075 210.713C12.2603 211.148 11.9194 211.491 11.4847 211.744C11.0501 211.994 10.5558 212.119 10.0018 212.119ZM17.4219 212.119C16.7798 212.119 16.233 211.945 15.7812 211.595C15.3295 211.243 14.9844 210.733 14.7457 210.065C14.5071 209.395 14.3878 208.585 14.3878 207.636C14.3878 206.693 14.5071 205.888 14.7457 205.22C14.9872 204.55 15.3338 204.038 15.7855 203.686C16.2401 203.331 16.7855 203.153 17.4219 203.153C18.0582 203.153 18.6023 203.331 19.054 203.686C19.5085 204.038 19.8551 204.55 20.0938 205.22C20.3352 205.888 20.456 206.693 20.456 207.636C20.456 208.585 20.3366 209.395 20.098 210.065C19.8594 210.733 19.5142 211.243 19.0625 211.595C18.6108 211.945 18.0639 212.119 17.4219 212.119ZM17.4219 211.182C18.0582 211.182 18.5526 210.875 18.9048 210.261C19.2571 209.648 19.4332 208.773 19.4332 207.636C19.4332 206.881 19.3523 206.237 19.1903 205.706C19.0313 205.175 18.8011 204.77 18.5 204.491C18.2017 204.213 17.8423 204.074 17.4219 204.074C16.7912 204.074 16.2983 204.385 15.9432 205.007C15.5881 205.626 15.4105 206.503 15.4105 207.636C15.4105 208.392 15.4901 209.034 15.6491 209.562C15.8082 210.091 16.0369 210.493 16.3352 210.768C16.6364 211.044 16.9986 211.182 17.4219 211.182ZM22.2287 212V203.273H23.2855V207.602H23.3878L27.3082 203.273H28.6889L25.0241 207.21L28.6889 212H27.4105L24.3764 207.943L23.2855 209.17V212H22.2287Z" fill="black" fill-opacity="0.4"/>
<path d="M6.67152 242.21V241.341L10.1658 235.273H11.2056L7.79652 241.205V241.273H12.9783V242.21H6.67152ZM10.7795 244V241.955V241.541V238.545H11.7852V244H10.7795ZM17.4219 244.119C16.7798 244.119 16.233 243.945 15.7812 243.595C15.3295 243.243 14.9844 242.733 14.7457 242.065C14.5071 241.395 14.3878 240.585 14.3878 239.636C14.3878 238.693 14.5071 237.888 14.7457 237.22C14.9872 236.55 15.3338 236.038 15.7855 235.686C16.2401 235.331 16.7855 235.153 17.4219 235.153C18.0582 235.153 18.6023 235.331 19.054 235.686C19.5085 236.038 19.8551 236.55 20.0938 237.22C20.3352 237.888 20.456 238.693 20.456 239.636C20.456 240.585 20.3366 241.395 20.098 242.065C19.8594 242.733 19.5142 243.243 19.0625 243.595C18.6108 243.945 18.0639 244.119 17.4219 244.119ZM17.4219 243.182C18.0582 243.182 18.5526 242.875 18.9048 242.261C19.2571 241.648 19.4332 240.773 19.4332 239.636C19.4332 238.881 19.3523 238.237 19.1903 237.706C19.0313 237.175 18.8011 236.77 18.5 236.491C18.2017 236.213 17.8423 236.074 17.4219 236.074C16.7912 236.074 16.2983 236.385 15.9432 237.007C15.5881 237.626 15.4105 238.503 15.4105 239.636C15.4105 240.392 15.4901 241.034 15.6491 241.562C15.8082 242.091 16.0369 242.493 16.3352 242.768C16.6364 243.044 16.9986 243.182 17.4219 243.182ZM22.2287 244V235.273H23.2855V239.602H23.3878L27.3082 235.273H28.6889L25.0241 239.21L28.6889 244H27.4105L24.3764 239.943L23.2855 241.17V244H22.2287Z" fill="black" fill-opacity="0.4"/>
<path d="M6.90376 273.818H7.97763C8.00888 274.114 8.10973 274.364 8.28018 274.568C8.45348 274.77 8.67791 274.923 8.95348 275.028C9.22905 275.131 9.53445 275.182 9.86967 275.182C10.2333 275.182 10.56 275.121 10.8498 274.999C11.1396 274.876 11.3697 274.695 11.5401 274.453C11.7106 274.209 11.7958 273.906 11.7958 273.545C11.7958 273.23 11.7219 272.937 11.5742 272.668C11.4265 272.395 11.1893 272.175 10.8626 272.007C10.5359 271.839 10.1026 271.756 9.56286 271.756H8.86399V270.903L11.0458 268.278V268.21H7.3299V267.273H12.4947V268.04L10.1594 270.869V270.938C10.5344 270.955 10.8839 271.031 11.2077 271.168C11.5344 271.304 11.8185 271.489 12.06 271.722C12.3043 271.955 12.4947 272.226 12.631 272.536C12.7674 272.845 12.8356 273.182 12.8356 273.545C12.8356 274.043 12.7077 274.486 12.4521 274.875C12.1992 275.261 11.8484 275.565 11.3995 275.787C10.9535 276.009 10.4379 276.119 9.85263 276.119C9.33558 276.119 8.85973 276.028 8.42507 275.847C7.99041 275.665 7.63672 275.402 7.36399 275.058C7.09126 274.714 6.93786 274.301 6.90376 273.818ZM17.4219 276.119C16.7798 276.119 16.233 275.945 15.7812 275.595C15.3295 275.243 14.9844 274.733 14.7457 274.065C14.5071 273.395 14.3878 272.585 14.3878 271.636C14.3878 270.693 14.5071 269.888 14.7457 269.22C14.9872 268.55 15.3338 268.038 15.7855 267.686C16.2401 267.331 16.7855 267.153 17.4219 267.153C18.0582 267.153 18.6023 267.331 19.054 267.686C19.5085 268.038 19.8551 268.55 20.0938 269.22C20.3352 269.888 20.456 270.693 20.456 271.636C20.456 272.585 20.3366 273.395 20.098 274.065C19.8594 274.733 19.5142 275.243 19.0625 275.595C18.6108 275.945 18.0639 276.119 17.4219 276.119ZM17.4219 275.182C18.0582 275.182 18.5526 274.875 18.9048 274.261C19.2571 273.648 19.4332 272.773 19.4332 271.636C19.4332 270.881 19.3523 270.237 19.1903 269.706C19.0313 269.175 18.8011 268.77 18.5 268.491C18.2017 268.213 17.8423 268.074 17.4219 268.074C16.7912 268.074 16.2983 268.385 15.9432 269.007C15.5881 269.626 15.4105 270.503 15.4105 271.636C15.4105 272.392 15.4901 273.034 15.6491 273.562C15.8082 274.091 16.0369 274.493 16.3352 274.768C16.6364 275.044 16.9986 275.182 17.4219 275.182ZM22.2287 276V267.273H23.2855V271.602H23.3878L27.3082 267.273H28.6889L25.0241 271.21L28.6889 276H27.4105L24.3764 271.943L23.2855 273.17V276H22.2287Z" fill="black" fill-opacity="0.4"/>
<path d="M7.30966 308V307.233L10.1903 304.08C10.5284 303.71 10.8068 303.389 11.0256 303.116C11.2443 302.841 11.4063 302.582 11.5114 302.341C11.6193 302.097 11.6733 301.841 11.6733 301.574C11.6733 301.267 11.5994 301.001 11.4517 300.777C11.3068 300.553 11.108 300.379 10.8551 300.257C10.6023 300.135 10.3182 300.074 10.0028 300.074C9.66761 300.074 9.375 300.143 9.125 300.283C8.87784 300.419 8.68608 300.611 8.54972 300.858C8.41619 301.105 8.34943 301.395 8.34943 301.727H7.34375C7.34375 301.216 7.46165 300.767 7.69744 300.381C7.93324 299.994 8.25426 299.693 8.66051 299.477C9.0696 299.261 9.52841 299.153 10.0369 299.153C10.5483 299.153 11.0014 299.261 11.3963 299.477C11.7912 299.693 12.1009 299.984 12.3253 300.351C12.5497 300.717 12.6619 301.125 12.6619 301.574C12.6619 301.895 12.6037 302.209 12.4872 302.516C12.3736 302.82 12.1747 303.159 11.8906 303.534C11.6094 303.906 11.2188 304.361 10.7188 304.898L8.75852 306.994V307.062H12.8153V308H7.30966ZM17.4219 308.119C16.7798 308.119 16.233 307.945 15.7812 307.595C15.3295 307.243 14.9844 306.733 14.7457 306.065C14.5071 305.395 14.3878 304.585 14.3878 303.636C14.3878 302.693 14.5071 301.888 14.7457 301.22C14.9872 300.55 15.3338 300.038 15.7855 299.686C16.2401 299.331 16.7855 299.153 17.4219 299.153C18.0582 299.153 18.6023 299.331 19.054 299.686C19.5085 300.038 19.8551 300.55 20.0938 301.22C20.3352 301.888 20.456 302.693 20.456 303.636C20.456 304.585 20.3366 305.395 20.098 306.065C19.8594 306.733 19.5142 307.243 19.0625 307.595C18.6108 307.945 18.0639 308.119 17.4219 308.119ZM17.4219 307.182C18.0582 307.182 18.5526 306.875 18.9048 306.261C19.2571 305.648 19.4332 304.773 19.4332 303.636C19.4332 302.881 19.3523 302.237 19.1903 301.706C19.0313 301.175 18.8011 300.77 18.5 300.491C18.2017 300.213 17.8423 300.074 17.4219 300.074C16.7912 300.074 16.2983 300.385 15.9432 301.007C15.5881 301.626 15.4105 302.503 15.4105 303.636C15.4105 304.392 15.4901 305.034 15.6491 305.562C15.8082 306.091 16.0369 306.493 16.3352 306.768C16.6364 307.044 16.9986 307.182 17.4219 307.182ZM22.2287 308V299.273H23.2855V303.602H23.3878L27.3082 299.273H28.6889L25.0241 303.21L28.6889 308H27.4105L24.3764 303.943L23.2855 305.17V308H22.2287Z" fill="black" fill-opacity="0.4"/>
<path d="M12.0739 331.273V340H11.017V332.807H10.9489C10.9091 332.886 10.8068 332.977 10.642 333.08C10.4773 333.179 10.2642 333.267 10.0028 333.344C9.74148 333.418 9.44318 333.455 9.10795 333.455V332.568C9.44602 332.568 9.73864 332.507 9.9858 332.385C10.233 332.263 10.4389 332.119 10.6037 331.955C10.7713 331.79 10.8977 331.641 10.983 331.507C11.071 331.374 11.1222 331.295 11.1364 331.273H12.0739ZM17.4219 340.119C16.7798 340.119 16.233 339.945 15.7812 339.595C15.3295 339.243 14.9844 338.733 14.7457 338.065C14.5071 337.395 14.3878 336.585 14.3878 335.636C14.3878 334.693 14.5071 333.888 14.7457 333.22C14.9872 332.55 15.3338 332.038 15.7855 331.686C16.2401 331.331 16.7855 331.153 17.4219 331.153C18.0582 331.153 18.6023 331.331 19.054 331.686C19.5085 332.038 19.8551 332.55 20.0938 333.22C20.3352 333.888 20.456 334.693 20.456 335.636C20.456 336.585 20.3366 337.395 20.098 338.065C19.8594 338.733 19.5142 339.243 19.0625 339.595C18.6108 339.945 18.0639 340.119 17.4219 340.119ZM17.4219 339.182C18.0582 339.182 18.5526 338.875 18.9048 338.261C19.2571 337.648 19.4332 336.773 19.4332 335.636C19.4332 334.881 19.3523 334.237 19.1903 333.706C19.0313 333.175 18.8011 332.77 18.5 332.491C18.2017 332.213 17.8423 332.074 17.4219 332.074C16.7912 332.074 16.2983 332.385 15.9432 333.007C15.5881 333.626 15.4105 334.503 15.4105 335.636C15.4105 336.392 15.4901 337.034 15.6491 337.562C15.8082 338.091 16.0369 338.493 16.3352 338.768C16.6364 339.044 16.9986 339.182 17.4219 339.182ZM22.2287 340V331.273H23.2855V335.602H23.3878L27.3082 331.273H28.6889L25.0241 335.21L28.6889 340H27.4105L24.3764 335.943L23.2855 337.17V340H22.2287Z" fill="black" fill-opacity="0.4"/>
<path d="M25.25 372.119C24.608 372.119 24.0611 371.945 23.6094 371.595C23.1577 371.243 22.8125 370.733 22.5739 370.065C22.3352 369.395 22.2159 368.585 22.2159 367.636C22.2159 366.693 22.3352 365.888 22.5739 365.22C22.8153 364.55 23.1619 364.038 23.6136 363.686C24.0682 363.331 24.6136 363.153 25.25 363.153C25.8864 363.153 26.4304 363.331 26.8821 363.686C27.3366 364.038 27.6832 364.55 27.9219 365.22C28.1634 365.888 28.2841 366.693 28.2841 367.636C28.2841 368.585 28.1648 369.395 27.9261 370.065C27.6875 370.733 27.3423 371.243 26.8906 371.595C26.4389 371.945 25.892 372.119 25.25 372.119ZM25.25 371.182C25.8864 371.182 26.3807 370.875 26.733 370.261C27.0852 369.648 27.2614 368.773 27.2614 367.636C27.2614 366.881 27.1804 366.237 27.0185 365.706C26.8594 365.175 26.6293 364.77 26.3281 364.491C26.0298 364.213 25.6705 364.074 25.25 364.074C24.6193 364.074 24.1264 364.385 23.7713 365.007C23.4162 365.626 23.2386 366.503 23.2386 367.636C23.2386 368.392 23.3182 369.034 23.4773 369.562C23.6364 370.091 23.8651 370.493 24.1634 370.768C24.4645 371.044 24.8267 371.182 25.25 371.182Z" fill="black" fill-opacity="0.4"/>
<line x1="45.25" y1="15.75" x2="799.75" y2="15.75" stroke="black" stroke-opacity="0.04" stroke-width="0.5" stroke-linecap="round"/>
<line x1="45.25" y1="48.1136" x2="799.75" y2="48.1136" stroke="black" stroke-opacity="0.04" stroke-width="0.5" stroke-linecap="round"/>
<line x1="45.25" y1="80.4773" x2="799.75" y2="80.4773" stroke="black" stroke-opacity="0.04" stroke-width="0.5" stroke-linecap="round"/>
<line x1="45.25" y1="112.841" x2="799.75" y2="112.841" stroke="black" stroke-opacity="0.04" stroke-width="0.5" stroke-linecap="round"/>
<line x1="45.25" y1="145.205" x2="799.75" y2="145.205" stroke="black" stroke-opacity="0.04" stroke-width="0.5" stroke-linecap="round"/>
<line x1="45.25" y1="177.568" x2="799.75" y2="177.568" stroke="black" stroke-opacity="0.04" stroke-width="0.5" stroke-linecap="round"/>
<line x1="45.25" y1="209.932" x2="799.75" y2="209.932" stroke="black" stroke-opacity="0.04" stroke-width="0.5" stroke-linecap="round"/>
<line x1="45.25" y1="242.295" x2="799.75" y2="242.295" stroke="black" stroke-opacity="0.04" stroke-width="0.5" stroke-linecap="round"/>
<line x1="45.25" y1="274.659" x2="799.75" y2="274.659" stroke="black" stroke-opacity="0.04" stroke-width="0.5" stroke-linecap="round"/>
<line x1="45.25" y1="307.023" x2="799.75" y2="307.023" stroke="black" stroke-opacity="0.04" stroke-width="0.5" stroke-linecap="round"/>
<line x1="45.25" y1="339.386" x2="799.75" y2="339.386" stroke="black" stroke-opacity="0.04" stroke-width="0.5" stroke-linecap="round"/>
<line x1="45.25" y1="371.75" x2="799.75" y2="371.75" stroke="black" stroke-opacity="0.2" stroke-width="0.5" stroke-linecap="round"/>
<path d="M62.4583 198.8C62.4583 194.32 62.4583 192.079 63.3303 190.368C64.0973 188.863 65.3211 187.639 66.8264 186.872C68.5377 186 70.7779 186 75.2583 186H77.6583C82.1388 186 84.379 186 86.0903 186.872C87.5956 187.639 88.8194 188.863 89.5864 190.368C90.4583 192.079 90.4583 194.32 90.4583 198.8V232.5H62.4583V198.8Z" fill="#A0BCE8"/>
<rect x="62.4583" y="232.5" width="28" height="46.5" fill="#A0BCE8"/>
<rect x="62.4583" y="279" width="28" height="46.5" fill="#A0BCE8"/>
<path d="M62.4583 325.5H90.4583V359.2C90.4583 363.68 90.4583 365.921 89.5864 367.632C88.8194 369.137 87.5956 370.361 86.0903 371.128C84.379 372 82.1388 372 77.6583 372H75.2583C70.7779 372 68.5377 372 66.8264 371.128C65.3211 370.361 64.0973 369.137 63.3303 367.632C62.4583 365.921 62.4583 363.68 62.4583 359.2V325.5Z" fill="#A0BCE8"/>
<path d="M125.375 59.3C125.375 54.8196 125.375 52.5794 126.247 50.8681C127.014 49.3628 128.238 48.1389 129.743 47.3719C131.454 46.5 133.695 46.5 138.175 46.5H140.575C145.055 46.5 147.296 46.5 149.007 47.3719C150.512 48.1389 151.736 49.3628 152.503 50.8681C153.375 52.5794 153.375 54.8196 153.375 59.3V93H125.375V59.3Z" fill="#6BE6D3"/>
<rect x="125.375" y="93" width="28" height="46.5" fill="#6BE6D3"/>
<rect x="125.375" y="139.5" width="28" height="46.5" fill="#6BE6D3"/>
<rect x="125.375" y="186" width="28" height="46.5" fill="#6BE6D3"/>
<rect x="125.375" y="232.5" width="28" height="46.5" fill="#6BE6D3"/>
<rect x="125.375" y="279" width="28" height="46.5" fill="#6BE6D3"/>
<path d="M125.375 325.5H153.375V359.2C153.375 363.68 153.375 365.921 152.503 367.632C151.736 369.137 150.512 370.361 149.007 371.128C147.296 372 145.055 372 140.575 372H138.175C133.695 372 131.454 372 129.743 371.128C128.238 370.361 127.014 369.137 126.247 367.632C125.375 365.921 125.375 363.68 125.375 359.2V325.5Z" fill="#6BE6D3"/>
<path d="M188.292 152.3C188.292 147.82 188.292 145.579 189.164 143.868C189.931 142.363 191.154 141.139 192.66 140.372C194.371 139.5 196.611 139.5 201.092 139.5H203.492C207.972 139.5 210.212 139.5 211.924 140.372C213.429 141.139 214.653 142.363 215.42 143.868C216.292 145.579 216.292 147.82 216.292 152.3V186H188.292V152.3Z" fill="black"/>
<rect x="188.292" y="186" width="28" height="46.5" fill="black"/>
<rect x="188.292" y="232.5" width="28" height="46.5" fill="black"/>
<rect x="188.292" y="279" width="28" height="46.5" fill="black"/>
<path d="M188.292 325.5H216.292V359.2C216.292 363.68 216.292 365.921 215.42 367.632C214.653 369.137 213.429 370.361 211.924 371.128C210.212 372 207.972 372 203.492 372H201.092C196.611 372 194.371 372 192.66 371.128C191.154 370.361 189.931 369.137 189.164 367.632C188.292 365.921 188.292 363.68 188.292 359.2V325.5Z" fill="black"/>
<path d="M251.208 12.8C251.208 8.31958 251.208 6.07937 252.08 4.36808C252.847 2.86278 254.071 1.63893 255.576 0.871948C257.288 0 259.528 0 264.008 0H266.408C270.889 0 273.129 0 274.84 0.871948C276.346 1.63893 277.569 2.86278 278.336 4.36808C279.208 6.07937 279.208 8.31958 279.208 12.8V46.5H251.208V12.8Z" fill="#7DBBFF"/>
<rect x="251.208" y="46.5" width="28" height="46.5" fill="#7DBBFF"/>
<rect x="251.208" y="93" width="28" height="46.5" fill="#7DBBFF"/>
<rect x="251.208" y="139.5" width="28" height="46.5" fill="#7DBBFF"/>
<rect x="251.208" y="186" width="28" height="46.5" fill="#7DBBFF"/>
<rect x="251.208" y="232.5" width="28" height="46.5" fill="#7DBBFF"/>
<rect x="251.208" y="279" width="28" height="46.5" fill="#7DBBFF"/>
<path d="M251.208 325.5H279.208V359.2C279.208 363.68 279.208 365.921 278.336 367.632C277.569 369.137 276.346 370.361 274.84 371.128C273.129 372 270.889 372 266.408 372H264.008C259.528 372 257.288 372 255.576 371.128C254.071 370.361 252.847 369.137 252.08 367.632C251.208 365.921 251.208 363.68 251.208 359.2V325.5Z" fill="#7DBBFF"/>
<path d="M314.125 245.3C314.125 240.82 314.125 238.579 314.997 236.868C315.764 235.363 316.988 234.139 318.493 233.372C320.204 232.5 322.445 232.5 326.925 232.5H329.325C333.805 232.5 336.046 232.5 337.757 233.372C339.262 234.139 340.486 235.363 341.253 236.868C342.125 238.579 342.125 240.82 342.125 245.3V279H314.125V245.3Z" fill="#B899EB"/>
<rect x="314.125" y="279" width="28" height="46.5" fill="#B899EB"/>
<path d="M314.125 325.5H342.125V359.2C342.125 363.68 342.125 365.921 341.253 367.632C340.486 369.137 339.262 370.361 337.757 371.128C336.046 372 333.805 372 329.325 372H326.925C322.445 372 320.204 372 318.493 371.128C316.988 370.361 315.764 369.137 314.997 367.632C314.125 365.921 314.125 363.68 314.125 359.2V325.5Z" fill="#B899EB"/>
<path d="M377.042 105.8C377.042 101.32 377.042 99.0794 377.914 97.3681C378.681 95.8628 379.904 94.6389 381.41 93.8719C383.121 93 385.361 93 389.842 93H392.242C396.722 93 398.962 93 400.674 93.8719C402.179 94.6389 403.403 95.8628 404.17 97.3681C405.042 99.0794 405.042 101.32 405.042 105.8V139.5H377.042V105.8Z" fill="#71DD8C"/>
<rect x="377.042" y="139.5" width="28" height="46.5" fill="#71DD8C"/>
<rect x="377.042" y="186" width="28" height="46.5" fill="#71DD8C"/>
<rect x="377.042" y="232.5" width="28" height="46.5" fill="#71DD8C"/>
<rect x="377.042" y="279" width="28" height="46.5" fill="#71DD8C"/>
<path d="M377.042 325.5H405.042V359.2C405.042 363.68 405.042 365.921 404.17 367.632C403.403 369.137 402.179 370.361 400.674 371.128C398.962 372 396.722 372 392.242 372H389.842C385.361 372 383.121 372 381.41 371.128C379.904 370.361 378.681 369.137 377.914 367.632C377.042 365.921 377.042 363.68 377.042 359.2V325.5Z" fill="#71DD8C"/>
<path d="M439.958 198.8C439.958 194.32 439.958 192.079 440.83 190.368C441.597 188.863 442.821 187.639 444.326 186.872C446.038 186 448.278 186 452.758 186H455.158C459.639 186 461.879 186 463.59 186.872C465.096 187.639 466.319 188.863 467.086 190.368C467.958 192.079 467.958 194.32 467.958 198.8V232.5H439.958V198.8Z" fill="#A0BCE8"/>
<rect x="439.958" y="232.5" width="28" height="46.5" fill="#A0BCE8"/>
<rect x="439.958" y="279" width="28" height="46.5" fill="#A0BCE8"/>
<path d="M439.958 325.5H467.958V359.2C467.958 363.68 467.958 365.921 467.086 367.632C466.319 369.137 465.096 370.361 463.59 371.128C461.879 372 459.639 372 455.158 372H452.758C448.278 372 446.038 372 444.326 371.128C442.821 370.361 441.597 369.137 440.83 367.632C439.958 365.921 439.958 363.68 439.958 359.2V325.5Z" fill="#A0BCE8"/>
<path d="M502.875 59.3C502.875 54.8196 502.875 52.5794 503.747 50.8681C504.514 49.3628 505.738 48.1389 507.243 47.3719C508.954 46.5 511.195 46.5 515.675 46.5H518.075C522.555 46.5 524.796 46.5 526.507 47.3719C528.012 48.1389 529.236 49.3628 530.003 50.8681C530.875 52.5794 530.875 54.8196 530.875 59.3V93H502.875V59.3Z" fill="#6BE6D3"/>
<rect x="502.875" y="93" width="28" height="46.5" fill="#6BE6D3"/>
<rect x="502.875" y="139.5" width="28" height="46.5" fill="#6BE6D3"/>
<rect x="502.875" y="186" width="28" height="46.5" fill="#6BE6D3"/>
<rect x="502.875" y="232.5" width="28" height="46.5" fill="#6BE6D3"/>
<rect x="502.875" y="279" width="28" height="46.5" fill="#6BE6D3"/>
<path d="M502.875 325.5H530.875V359.2C530.875 363.68 530.875 365.921 530.003 367.632C529.236 369.137 528.012 370.361 526.507 371.128C524.796 372 522.555 372 518.075 372H515.675C511.195 372 508.954 372 507.243 371.128C505.738 370.361 504.514 369.137 503.747 367.632C502.875 365.921 502.875 363.68 502.875 359.2V325.5Z" fill="#6BE6D3"/>
<path d="M565.792 152.3C565.792 147.82 565.792 145.579 566.664 143.868C567.43 142.363 568.654 141.139 570.16 140.372C571.871 139.5 574.111 139.5 578.592 139.5H580.992C585.472 139.5 587.712 139.5 589.423 140.372C590.929 141.139 592.153 142.363 592.92 143.868C593.792 145.579 593.792 147.82 593.792 152.3V186H565.792V152.3Z" fill="black"/>
<rect x="565.792" y="186" width="28" height="46.5" fill="black"/>
<rect x="565.792" y="232.5" width="28" height="46.5" fill="black"/>
<rect x="565.792" y="279" width="28" height="46.5" fill="black"/>
<path d="M565.792 325.5H593.792V359.2C593.792 363.68 593.792 365.921 592.92 367.632C592.153 369.137 590.929 370.361 589.423 371.128C587.712 372 585.472 372 580.992 372H578.592C574.111 372 571.871 372 570.16 371.128C568.654 370.361 567.43 369.137 566.664 367.632C565.792 365.921 565.792 363.68 565.792 359.2V325.5Z" fill="black"/>
<path d="M628.708 12.8C628.708 8.31958 628.708 6.07937 629.58 4.36808C630.347 2.86278 631.571 1.63893 633.076 0.871948C634.788 0 637.028 0 641.508 0H643.908C648.389 0 650.629 0 652.34 0.871948C653.845 1.63893 655.069 2.86278 655.836 4.36808C656.708 6.07937 656.708 8.31958 656.708 12.8V46.5H628.708V12.8Z" fill="#7DBBFF"/>
<rect x="628.708" y="46.5" width="28" height="46.5" fill="#7DBBFF"/>
<rect x="628.708" y="93" width="28" height="46.5" fill="#7DBBFF"/>
<rect x="628.708" y="139.5" width="28" height="46.5" fill="#7DBBFF"/>
<rect x="628.708" y="186" width="28" height="46.5" fill="#7DBBFF"/>
<rect x="628.708" y="232.5" width="28" height="46.5" fill="#7DBBFF"/>
<rect x="628.708" y="279" width="28" height="46.5" fill="#7DBBFF"/>
<path d="M628.708 325.5H656.708V359.2C656.708 363.68 656.708 365.921 655.836 367.632C655.069 369.137 653.845 370.361 652.34 371.128C650.629 372 648.389 372 643.908 372H641.508C637.028 372 634.788 372 633.076 371.128C631.571 370.361 630.347 369.137 629.58 367.632C628.708 365.921 628.708 363.68 628.708 359.2V325.5Z" fill="#7DBBFF"/>
<path d="M691.625 245.3C691.625 240.82 691.625 238.579 692.497 236.868C693.264 235.363 694.488 234.139 695.993 233.372C697.704 232.5 699.945 232.5 704.425 232.5H706.825C711.305 232.5 713.546 232.5 715.257 233.372C716.762 234.139 717.986 235.363 718.753 236.868C719.625 238.579 719.625 240.82 719.625 245.3V279H691.625V245.3Z" fill="#B899EB"/>
<rect x="691.625" y="279" width="28" height="46.5" fill="#B899EB"/>
<path d="M691.625 325.5H719.625V359.2C719.625 363.68 719.625 365.921 718.753 367.632C717.986 369.137 716.762 370.361 715.257 371.128C713.546 372 711.305 372 706.825 372H704.425C699.945 372 697.704 372 695.993 371.128C694.488 370.361 693.264 369.137 692.497 367.632C691.625 365.921 691.625 363.68 691.625 359.2V325.5Z" fill="#B899EB"/>
<path d="M754.542 105.8C754.542 101.32 754.542 99.0794 755.414 97.3681C756.181 95.8628 757.404 94.6389 758.91 93.8719C760.621 93 762.861 93 767.342 93H769.742C774.222 93 776.462 93 778.174 93.8719C779.679 94.6389 780.903 95.8628 781.67 97.3681C782.542 99.0794 782.542 101.32 782.542 105.8V139.5H754.542V105.8Z" fill="#71DD8C"/>
<rect x="754.542" y="139.5" width="28" height="46.5" fill="#71DD8C"/>
<rect x="754.542" y="186" width="28" height="46.5" fill="#71DD8C"/>
<rect x="754.542" y="232.5" width="28" height="46.5" fill="#71DD8C"/>
<rect x="754.542" y="279" width="28" height="46.5" fill="#71DD8C"/>
<path d="M754.542 325.5H782.542V359.2C782.542 363.68 782.542 365.921 781.67 367.632C780.903 369.137 779.679 370.361 778.174 371.128C776.462 372 774.222 372 769.742 372H767.342C762.861 372 760.621 372 758.91 371.128C757.404 370.361 756.181 369.137 755.414 367.632C754.542 365.921 754.542 363.68 754.542 359.2V325.5Z" fill="#71DD8C"/>
<path d="M70.7076 387.273H71.7644V393.511C71.7644 394.068 71.6622 394.541 71.4576 394.93C71.2531 395.32 70.9647 395.615 70.5926 395.817C70.2204 396.018 69.7815 396.119 69.2758 396.119C68.7985 396.119 68.3738 396.033 68.0017 395.859C67.6295 395.683 67.3369 395.433 67.1238 395.109C66.9107 394.786 66.8042 394.401 66.8042 393.955H67.844C67.844 394.202 67.9051 394.418 68.0272 394.602C68.1522 394.784 68.3227 394.926 68.5386 395.028C68.7545 395.131 69.0002 395.182 69.2758 395.182C69.5798 395.182 69.8383 395.118 70.0514 394.99C70.2644 394.862 70.4264 394.675 70.5372 394.428C70.6508 394.178 70.7076 393.872 70.7076 393.511V387.273ZM75.6721 396.153C75.2573 396.153 74.8809 396.075 74.5429 395.919C74.2048 395.76 73.9363 395.531 73.7375 395.233C73.5386 394.932 73.4392 394.568 73.4392 394.142C73.4392 393.767 73.513 393.463 73.6607 393.23C73.8085 392.994 74.0059 392.81 74.2531 392.676C74.5002 392.543 74.773 392.443 75.0713 392.378C75.3724 392.31 75.675 392.256 75.9789 392.216C76.3767 392.165 76.6991 392.126 76.9463 392.101C77.1963 392.072 77.3781 392.026 77.4917 391.96C77.6082 391.895 77.6664 391.781 77.6664 391.619V391.585C77.6664 391.165 77.5514 390.838 77.3213 390.605C77.094 390.372 76.7488 390.256 76.2857 390.256C75.8056 390.256 75.4292 390.361 75.1565 390.571C74.8838 390.781 74.692 391.006 74.5812 391.244L73.6267 390.903C73.7971 390.506 74.0244 390.196 74.3085 389.974C74.5954 389.75 74.9079 389.594 75.246 389.506C75.5869 389.415 75.9221 389.369 76.2517 389.369C76.4619 389.369 76.7034 389.395 76.9761 389.446C77.2517 389.494 77.5173 389.595 77.773 389.749C78.0315 389.902 78.246 390.134 78.4164 390.443C78.5869 390.753 78.6721 391.168 78.6721 391.688V396H77.6664V395.114H77.6153C77.5471 395.256 77.4335 395.408 77.2744 395.57C77.1153 395.732 76.9036 395.869 76.6394 395.983C76.3752 396.097 76.0528 396.153 75.6721 396.153ZM75.8255 395.25C76.2232 395.25 76.5585 395.172 76.8312 395.016C77.1068 394.859 77.3142 394.658 77.4534 394.411C77.5954 394.163 77.6664 393.903 77.6664 393.631V392.71C77.6238 392.761 77.5301 392.808 77.3852 392.851C77.2431 392.891 77.0784 392.926 76.8909 392.957C76.7062 392.986 76.5258 393.011 76.3497 393.034C76.1764 393.054 76.0357 393.071 75.9278 393.085C75.6664 393.119 75.4221 393.175 75.1948 393.251C74.9704 393.325 74.7886 393.437 74.6494 393.588C74.513 393.736 74.4448 393.937 74.4448 394.193C74.4448 394.543 74.5741 394.807 74.8326 394.986C75.094 395.162 75.425 395.25 75.8255 395.25ZM81.5134 392.062V396H80.5077V389.455H81.4793V390.477H81.5645C81.7179 390.145 81.9509 389.878 82.2634 389.676C82.5759 389.472 82.9793 389.369 83.4736 389.369C83.9168 389.369 84.3046 389.46 84.637 389.642C84.9693 389.821 85.2279 390.094 85.4125 390.46C85.5972 390.824 85.6895 391.284 85.6895 391.841V396H84.6838V391.909C84.6838 391.395 84.5503 390.994 84.2833 390.707C84.0162 390.418 83.6497 390.273 83.1838 390.273C82.8628 390.273 82.5759 390.342 82.323 390.482C82.073 390.621 81.8756 390.824 81.7307 391.091C81.5858 391.358 81.5134 391.682 81.5134 392.062Z" fill="black" fill-opacity="0.4"/>
<path d="M129.932 396V387.273H135.165V388.21H130.989V391.159H134.773V392.097H130.989V396H129.932ZM139.102 396.136C138.472 396.136 137.928 395.997 137.47 395.719C137.016 395.438 136.665 395.045 136.418 394.543C136.173 394.037 136.051 393.449 136.051 392.778C136.051 392.108 136.173 391.517 136.418 391.006C136.665 390.491 137.009 390.091 137.449 389.804C137.892 389.514 138.409 389.369 139 389.369C139.341 389.369 139.678 389.426 140.01 389.54C140.342 389.653 140.645 389.838 140.918 390.094C141.19 390.347 141.408 390.682 141.57 391.099C141.732 391.517 141.813 392.031 141.813 392.642V393.068H136.767V392.199H140.79C140.79 391.83 140.716 391.5 140.568 391.21C140.423 390.92 140.216 390.692 139.946 390.524C139.679 390.357 139.364 390.273 139 390.273C138.599 390.273 138.253 390.372 137.96 390.571C137.67 390.767 137.447 391.023 137.291 391.338C137.135 391.653 137.057 391.991 137.057 392.352V392.932C137.057 393.426 137.142 393.845 137.313 394.189C137.486 394.53 137.726 394.79 138.033 394.969C138.339 395.145 138.696 395.233 139.102 395.233C139.366 395.233 139.605 395.196 139.818 395.122C140.034 395.045 140.22 394.932 140.376 394.781C140.533 394.628 140.653 394.437 140.739 394.21L141.71 394.483C141.608 394.812 141.436 395.102 141.195 395.352C140.953 395.599 140.655 395.793 140.3 395.932C139.945 396.068 139.545 396.136 139.102 396.136ZM143.479 396V387.273H144.484V390.494H144.57C144.643 390.381 144.746 390.236 144.876 390.06C145.01 389.881 145.2 389.722 145.447 389.582C145.697 389.44 146.036 389.369 146.462 389.369C147.013 389.369 147.499 389.507 147.919 389.783C148.339 390.058 148.668 390.449 148.903 390.955C149.139 391.46 149.257 392.057 149.257 392.744C149.257 393.438 149.139 394.038 148.903 394.547C148.668 395.053 148.341 395.445 147.923 395.723C147.506 395.999 147.024 396.136 146.479 396.136C146.058 396.136 145.722 396.067 145.469 395.928C145.216 395.786 145.021 395.625 144.885 395.446C144.749 395.264 144.643 395.114 144.57 394.994H144.45V396H143.479ZM144.467 392.727C144.467 393.222 144.54 393.658 144.685 394.036C144.83 394.411 145.041 394.705 145.32 394.918C145.598 395.128 145.939 395.233 146.342 395.233C146.763 395.233 147.114 395.122 147.395 394.901C147.679 394.676 147.892 394.375 148.034 393.997C148.179 393.616 148.251 393.193 148.251 392.727C148.251 392.267 148.18 391.852 148.038 391.483C147.899 391.111 147.688 390.817 147.403 390.601C147.122 390.382 146.768 390.273 146.342 390.273C145.933 390.273 145.589 390.376 145.311 390.584C145.033 390.788 144.822 391.075 144.68 391.445C144.538 391.811 144.467 392.239 144.467 392.727Z" fill="black" fill-opacity="0.4"/>
<path d="M192.397 387.273H193.659L196.625 394.517H196.727L199.693 387.273H200.954V396H199.965V389.369H199.88L197.153 396H196.198L193.471 389.369H193.386V396H192.397V387.273ZM204.863 396.153C204.448 396.153 204.072 396.075 203.734 395.919C203.396 395.76 203.127 395.531 202.928 395.233C202.729 394.932 202.63 394.568 202.63 394.142C202.63 393.767 202.704 393.463 202.851 393.23C202.999 392.994 203.197 392.81 203.444 392.676C203.691 392.543 203.964 392.443 204.262 392.378C204.563 392.31 204.866 392.256 205.17 392.216C205.567 392.165 205.89 392.126 206.137 392.101C206.387 392.072 206.569 392.026 206.682 391.96C206.799 391.895 206.857 391.781 206.857 391.619V391.585C206.857 391.165 206.742 390.838 206.512 390.605C206.285 390.372 205.94 390.256 205.476 390.256C204.996 390.256 204.62 390.361 204.347 390.571C204.075 390.781 203.883 391.006 203.772 391.244L202.817 390.903C202.988 390.506 203.215 390.196 203.499 389.974C203.786 389.75 204.099 389.594 204.437 389.506C204.778 389.415 205.113 389.369 205.442 389.369C205.653 389.369 205.894 389.395 206.167 389.446C206.442 389.494 206.708 389.595 206.964 389.749C207.222 389.902 207.437 390.134 207.607 390.443C207.778 390.753 207.863 391.168 207.863 391.688V396H206.857V395.114H206.806C206.738 395.256 206.624 395.408 206.465 395.57C206.306 395.732 206.094 395.869 205.83 395.983C205.566 396.097 205.244 396.153 204.863 396.153ZM205.016 395.25C205.414 395.25 205.749 395.172 206.022 395.016C206.298 394.859 206.505 394.658 206.644 394.411C206.786 394.163 206.857 393.903 206.857 393.631V392.71C206.815 392.761 206.721 392.808 206.576 392.851C206.434 392.891 206.269 392.926 206.082 392.957C205.897 392.986 205.717 393.011 205.54 393.034C205.367 393.054 205.226 393.071 205.119 393.085C204.857 393.119 204.613 393.175 204.386 393.251C204.161 393.325 203.979 393.437 203.84 393.588C203.704 393.736 203.636 393.937 203.636 394.193C203.636 394.543 203.765 394.807 204.023 394.986C204.285 395.162 204.616 395.25 205.016 395.25ZM209.698 396V389.455H210.67V390.443H210.738C210.858 390.119 211.073 389.857 211.386 389.655C211.698 389.453 212.051 389.352 212.443 389.352C212.517 389.352 212.609 389.354 212.72 389.357C212.831 389.359 212.914 389.364 212.971 389.369V390.392C212.937 390.384 212.859 390.371 212.737 390.354C212.617 390.334 212.491 390.324 212.358 390.324C212.039 390.324 211.755 390.391 211.505 390.524C211.258 390.655 211.062 390.837 210.917 391.07C210.775 391.3 210.704 391.562 210.704 391.858V396H209.698Z" fill="black" fill-opacity="0.4"/>
<path d="M256.68 396H255.572L258.776 387.273H259.867L263.072 396H261.964L259.356 388.653H259.288L256.68 396ZM257.089 392.591H261.555V393.528H257.089V392.591ZM264.295 398.455V389.455H265.266V390.494H265.386C265.46 390.381 265.562 390.236 265.693 390.06C265.826 389.881 266.016 389.722 266.264 389.582C266.514 389.44 266.852 389.369 267.278 389.369C267.829 389.369 268.315 389.507 268.735 389.783C269.156 390.058 269.484 390.449 269.72 390.955C269.955 391.46 270.073 392.057 270.073 392.744C270.073 393.438 269.955 394.038 269.72 394.547C269.484 395.053 269.157 395.445 268.739 395.723C268.322 395.999 267.84 396.136 267.295 396.136C266.874 396.136 266.538 396.067 266.285 395.928C266.032 395.786 265.837 395.625 265.701 395.446C265.565 395.264 265.46 395.114 265.386 394.994H265.3V398.455H264.295ZM265.283 392.727C265.283 393.222 265.356 393.658 265.501 394.036C265.646 394.411 265.857 394.705 266.136 394.918C266.414 395.128 266.755 395.233 267.158 395.233C267.579 395.233 267.93 395.122 268.211 394.901C268.495 394.676 268.708 394.375 268.85 393.997C268.995 393.616 269.068 393.193 269.068 392.727C269.068 392.267 268.997 391.852 268.854 391.483C268.715 391.111 268.504 390.817 268.22 390.601C267.938 390.382 267.585 390.273 267.158 390.273C266.749 390.273 266.406 390.376 266.127 390.584C265.849 390.788 265.639 391.075 265.497 391.445C265.354 391.811 265.283 392.239 265.283 392.727ZM271.607 396V389.455H272.579V390.443H272.647C272.766 390.119 272.982 389.857 273.295 389.655C273.607 389.453 273.96 389.352 274.352 389.352C274.425 389.352 274.518 389.354 274.629 389.357C274.739 389.359 274.823 389.364 274.88 389.369V390.392C274.846 390.384 274.768 390.371 274.646 390.354C274.526 390.334 274.4 390.324 274.266 390.324C273.948 390.324 273.664 390.391 273.414 390.524C273.167 390.655 272.971 390.837 272.826 391.07C272.684 391.3 272.613 391.562 272.613 391.858V396H271.607Z" fill="black" fill-opacity="0.4"/>
<path d="M317.24 387.273H318.502L321.468 394.517H321.57L324.536 387.273H325.797V396H324.809V389.369H324.723L321.996 396H321.042L318.314 389.369H318.229V396H317.24V387.273ZM329.706 396.153C329.291 396.153 328.915 396.075 328.577 395.919C328.239 395.76 327.97 395.531 327.771 395.233C327.572 394.932 327.473 394.568 327.473 394.142C327.473 393.767 327.547 393.463 327.695 393.23C327.842 392.994 328.04 392.81 328.287 392.676C328.534 392.543 328.807 392.443 329.105 392.378C329.406 392.31 329.709 392.256 330.013 392.216C330.41 392.165 330.733 392.126 330.98 392.101C331.23 392.072 331.412 392.026 331.526 391.96C331.642 391.895 331.7 391.781 331.7 391.619V391.585C331.7 391.165 331.585 390.838 331.355 390.605C331.128 390.372 330.783 390.256 330.32 390.256C329.839 390.256 329.463 390.361 329.19 390.571C328.918 390.781 328.726 391.006 328.615 391.244L327.66 390.903C327.831 390.506 328.058 390.196 328.342 389.974C328.629 389.75 328.942 389.594 329.28 389.506C329.621 389.415 329.956 389.369 330.285 389.369C330.496 389.369 330.737 389.395 331.01 389.446C331.285 389.494 331.551 389.595 331.807 389.749C332.065 389.902 332.28 390.134 332.45 390.443C332.621 390.753 332.706 391.168 332.706 391.688V396H331.7V395.114H331.649C331.581 395.256 331.467 395.408 331.308 395.57C331.149 395.732 330.937 395.869 330.673 395.983C330.409 396.097 330.087 396.153 329.706 396.153ZM329.859 395.25C330.257 395.25 330.592 395.172 330.865 395.016C331.141 394.859 331.348 394.658 331.487 394.411C331.629 394.163 331.7 393.903 331.7 393.631V392.71C331.658 392.761 331.564 392.808 331.419 392.851C331.277 392.891 331.112 392.926 330.925 392.957C330.74 392.986 330.56 393.011 330.384 393.034C330.21 393.054 330.07 393.071 329.962 393.085C329.7 393.119 329.456 393.175 329.229 393.251C329.004 393.325 328.822 393.437 328.683 393.588C328.547 393.736 328.479 393.937 328.479 394.193C328.479 394.543 328.608 394.807 328.866 394.986C329.128 395.162 329.459 395.25 329.859 395.25ZM334.955 398.455C334.784 398.455 334.632 398.44 334.499 398.412C334.365 398.386 334.273 398.361 334.222 398.335L334.478 397.449C334.722 397.511 334.938 397.534 335.125 397.517C335.313 397.5 335.479 397.416 335.624 397.266C335.772 397.118 335.907 396.878 336.029 396.545L336.216 396.034L333.796 389.455H334.887L336.694 394.67H336.762L338.569 389.455H339.659L336.881 396.955C336.756 397.293 336.601 397.572 336.417 397.794C336.232 398.018 336.017 398.185 335.773 398.293C335.532 398.401 335.259 398.455 334.955 398.455Z" fill="black" fill-opacity="0.4"/>
<path d="M385.185 387.273H386.242V393.511C386.242 394.068 386.14 394.541 385.935 394.93C385.731 395.32 385.443 395.615 385.07 395.817C384.698 396.018 384.259 396.119 383.754 396.119C383.276 396.119 382.852 396.033 382.479 395.859C382.107 395.683 381.815 395.433 381.602 395.109C381.389 394.786 381.282 394.401 381.282 393.955H382.322C382.322 394.202 382.383 394.418 382.505 394.602C382.63 394.784 382.801 394.926 383.016 395.028C383.232 395.131 383.478 395.182 383.754 395.182C384.058 395.182 384.316 395.118 384.529 394.99C384.742 394.862 384.904 394.675 385.015 394.428C385.129 394.178 385.185 393.872 385.185 393.511V387.273ZM392.349 393.324V389.455H393.354V396H392.349V394.892H392.281C392.127 395.224 391.889 395.507 391.565 395.74C391.241 395.97 390.832 396.085 390.337 396.085C389.928 396.085 389.565 395.996 389.247 395.817C388.928 395.635 388.678 395.362 388.497 394.999C388.315 394.632 388.224 394.17 388.224 393.614V389.455H389.229V393.545C389.229 394.023 389.363 394.403 389.63 394.688C389.9 394.972 390.244 395.114 390.661 395.114C390.911 395.114 391.166 395.05 391.424 394.922C391.685 394.794 391.904 394.598 392.08 394.334C392.259 394.07 392.349 393.733 392.349 393.324ZM396.202 392.062V396H395.196V389.455H396.168V390.477H396.253C396.407 390.145 396.64 389.878 396.952 389.676C397.265 389.472 397.668 389.369 398.162 389.369C398.606 389.369 398.993 389.46 399.326 389.642C399.658 389.821 399.917 390.094 400.101 390.46C400.286 390.824 400.378 391.284 400.378 391.841V396H399.373V391.909C399.373 391.395 399.239 390.994 398.972 390.707C398.705 390.418 398.339 390.273 397.873 390.273C397.552 390.273 397.265 390.342 397.012 390.482C396.762 390.621 396.564 390.824 396.419 391.091C396.275 391.358 396.202 391.682 396.202 392.062Z" fill="black" fill-opacity="0.4"/>
<path d="M450.188 387.273H451.245V393.511C451.245 394.068 451.143 394.541 450.938 394.93C450.734 395.32 450.445 395.615 450.073 395.817C449.701 396.018 449.262 396.119 448.756 396.119C448.279 396.119 447.854 396.033 447.482 395.859C447.11 395.683 446.817 395.433 446.604 395.109C446.391 394.786 446.285 394.401 446.285 393.955H447.324C447.324 394.202 447.386 394.418 447.508 394.602C447.633 394.784 447.803 394.926 448.019 395.028C448.235 395.131 448.481 395.182 448.756 395.182C449.06 395.182 449.319 395.118 449.532 394.99C449.745 394.862 449.907 394.675 450.018 394.428C450.131 394.178 450.188 393.872 450.188 393.511V387.273ZM457.351 393.324V389.455H458.357V396H457.351V394.892H457.283C457.13 395.224 456.891 395.507 456.567 395.74C456.243 395.97 455.834 396.085 455.34 396.085C454.931 396.085 454.567 395.996 454.249 395.817C453.931 395.635 453.681 395.362 453.499 394.999C453.317 394.632 453.226 394.17 453.226 393.614V389.455H454.232V393.545C454.232 394.023 454.366 394.403 454.633 394.688C454.903 394.972 455.246 395.114 455.664 395.114C455.914 395.114 456.168 395.05 456.427 394.922C456.688 394.794 456.907 394.598 457.083 394.334C457.262 394.07 457.351 393.733 457.351 393.324ZM461.205 387.273V396H460.199V387.273H461.205Z" fill="black" fill-opacity="0.4"/>
<path d="M507.092 396H505.985L509.189 387.273H510.28L513.485 396H512.377L509.769 388.653H509.7L507.092 396ZM507.502 392.591H511.967V393.528H507.502V392.591ZM518.833 393.324V389.455H519.838V396H518.833V394.892H518.764C518.611 395.224 518.372 395.507 518.048 395.74C517.725 395.97 517.315 396.085 516.821 396.085C516.412 396.085 516.048 395.996 515.73 395.817C515.412 395.635 515.162 395.362 514.98 394.999C514.798 394.632 514.708 394.17 514.708 393.614V389.455H515.713V393.545C515.713 394.023 515.847 394.403 516.114 394.688C516.384 394.972 516.727 395.114 517.145 395.114C517.395 395.114 517.649 395.05 517.908 394.922C518.169 394.794 518.388 394.598 518.564 394.334C518.743 394.07 518.833 393.733 518.833 393.324ZM524.322 398.591C523.836 398.591 523.419 398.528 523.069 398.403C522.72 398.281 522.429 398.119 522.196 397.918C521.966 397.719 521.782 397.506 521.646 397.278L522.447 396.716C522.538 396.835 522.653 396.972 522.792 397.125C522.932 397.281 523.122 397.416 523.363 397.53C523.608 397.646 523.927 397.705 524.322 397.705C524.851 397.705 525.287 397.577 525.63 397.321C525.974 397.065 526.146 396.665 526.146 396.119V394.79H526.061C525.987 394.909 525.882 395.057 525.746 395.233C525.612 395.406 525.419 395.561 525.166 395.697C524.916 395.831 524.578 395.898 524.152 395.898C523.623 395.898 523.149 395.773 522.728 395.523C522.311 395.273 521.98 394.909 521.736 394.432C521.494 393.955 521.373 393.375 521.373 392.693C521.373 392.023 521.491 391.439 521.727 390.942C521.963 390.442 522.291 390.055 522.711 389.783C523.132 389.507 523.618 389.369 524.169 389.369C524.595 389.369 524.933 389.44 525.183 389.582C525.436 389.722 525.629 389.881 525.763 390.06C525.899 390.236 526.004 390.381 526.078 390.494H526.18V389.455H527.152V396.188C527.152 396.75 527.024 397.207 526.768 397.56C526.515 397.915 526.174 398.175 525.746 398.339C525.319 398.507 524.845 398.591 524.322 398.591ZM524.288 394.994C524.692 394.994 525.032 394.902 525.311 394.717C525.589 394.533 525.801 394.267 525.946 393.92C526.091 393.574 526.163 393.159 526.163 392.676C526.163 392.205 526.092 391.788 525.95 391.428C525.808 391.067 525.598 390.784 525.319 390.58C525.041 390.375 524.697 390.273 524.288 390.273C523.862 390.273 523.507 390.381 523.223 390.597C522.942 390.812 522.73 391.102 522.588 391.466C522.449 391.83 522.379 392.233 522.379 392.676C522.379 393.131 522.45 393.533 522.592 393.882C522.737 394.229 522.95 394.501 523.231 394.7C523.515 394.896 523.868 394.994 524.288 394.994Z" fill="black" fill-opacity="0.4"/>
<path d="M574.647 389.455C574.595 389.023 574.388 388.688 574.024 388.449C573.661 388.21 573.215 388.091 572.686 388.091C572.3 388.091 571.962 388.153 571.672 388.278C571.385 388.403 571.161 388.575 570.999 388.794C570.84 389.013 570.76 389.261 570.76 389.54C570.76 389.773 570.816 389.973 570.926 390.141C571.04 390.305 571.185 390.443 571.361 390.554C571.537 390.662 571.722 390.751 571.915 390.822C572.108 390.891 572.286 390.946 572.448 390.989L573.334 391.227C573.561 391.287 573.814 391.369 574.093 391.474C574.374 391.58 574.642 391.723 574.898 391.905C575.156 392.084 575.37 392.314 575.537 392.595C575.705 392.876 575.789 393.222 575.789 393.631C575.789 394.102 575.665 394.528 575.418 394.909C575.174 395.29 574.816 395.592 574.344 395.817C573.875 396.041 573.306 396.153 572.635 396.153C572.01 396.153 571.469 396.053 571.012 395.851C570.557 395.649 570.199 395.368 569.938 395.007C569.679 394.646 569.533 394.227 569.499 393.75H570.59C570.618 394.08 570.729 394.352 570.922 394.568C571.118 394.781 571.365 394.94 571.664 395.045C571.965 395.148 572.289 395.199 572.635 395.199C573.039 395.199 573.401 395.134 573.722 395.003C574.043 394.869 574.297 394.685 574.485 394.449C574.672 394.21 574.766 393.932 574.766 393.614C574.766 393.324 574.685 393.088 574.523 392.906C574.361 392.724 574.148 392.577 573.884 392.463C573.62 392.349 573.334 392.25 573.027 392.165L571.953 391.858C571.272 391.662 570.732 391.382 570.334 391.018C569.936 390.655 569.737 390.179 569.737 389.591C569.737 389.102 569.87 388.676 570.134 388.312C570.401 387.946 570.759 387.662 571.208 387.46C571.659 387.256 572.164 387.153 572.72 387.153C573.283 387.153 573.783 387.254 574.22 387.456C574.658 387.655 575.004 387.928 575.26 388.274C575.519 388.621 575.655 389.014 575.669 389.455H574.647ZM580.134 396.136C579.503 396.136 578.959 395.997 578.502 395.719C578.047 395.438 577.697 395.045 577.449 394.543C577.205 394.037 577.083 393.449 577.083 392.778C577.083 392.108 577.205 391.517 577.449 391.006C577.697 390.491 578.04 390.091 578.481 389.804C578.924 389.514 579.441 389.369 580.032 389.369C580.373 389.369 580.709 389.426 581.042 389.54C581.374 389.653 581.677 389.838 581.949 390.094C582.222 390.347 582.439 390.682 582.601 391.099C582.763 391.517 582.844 392.031 582.844 392.642V393.068H577.799V392.199H581.822C581.822 391.83 581.748 391.5 581.6 391.21C581.455 390.92 581.248 390.692 580.978 390.524C580.711 390.357 580.395 390.273 580.032 390.273C579.631 390.273 579.285 390.372 578.992 390.571C578.702 390.767 578.479 391.023 578.323 391.338C578.167 391.653 578.089 391.991 578.089 392.352V392.932C578.089 393.426 578.174 393.845 578.344 394.189C578.518 394.53 578.758 394.79 579.064 394.969C579.371 395.145 579.728 395.233 580.134 395.233C580.398 395.233 580.637 395.196 580.85 395.122C581.066 395.045 581.252 394.932 581.408 394.781C581.564 394.628 581.685 394.437 581.77 394.21L582.742 394.483C582.64 394.812 582.468 395.102 582.226 395.352C581.985 395.599 581.687 395.793 581.332 395.932C580.976 396.068 580.577 396.136 580.134 396.136ZM584.374 398.455V389.455H585.346V390.494H585.465C585.539 390.381 585.641 390.236 585.772 390.06C585.905 389.881 586.096 389.722 586.343 389.582C586.593 389.44 586.931 389.369 587.357 389.369C587.908 389.369 588.394 389.507 588.814 389.783C589.235 390.058 589.563 390.449 589.799 390.955C590.035 391.46 590.153 392.057 590.153 392.744C590.153 393.438 590.035 394.038 589.799 394.547C589.563 395.053 589.236 395.445 588.819 395.723C588.401 395.999 587.92 396.136 587.374 396.136C586.954 396.136 586.617 396.067 586.364 395.928C586.111 395.786 585.917 395.625 585.78 395.446C585.644 395.264 585.539 395.114 585.465 394.994H585.38V398.455H584.374ZM585.363 392.727C585.363 393.222 585.435 393.658 585.58 394.036C585.725 394.411 585.937 394.705 586.215 394.918C586.493 395.128 586.834 395.233 587.238 395.233C587.658 395.233 588.009 395.122 588.29 394.901C588.574 394.676 588.788 394.375 588.93 393.997C589.074 393.616 589.147 393.193 589.147 392.727C589.147 392.267 589.076 391.852 588.934 391.483C588.795 391.111 588.583 390.817 588.299 390.601C588.018 390.382 587.664 390.273 587.238 390.273C586.829 390.273 586.485 390.376 586.207 390.584C585.928 390.788 585.718 391.075 585.576 391.445C585.434 391.811 585.363 392.239 585.363 392.727Z" fill="black" fill-opacity="0.4"/>
<path d="M641.027 391.636C641.027 392.557 640.861 393.352 640.529 394.023C640.196 394.693 639.74 395.21 639.161 395.574C638.581 395.938 637.919 396.119 637.175 396.119C636.431 396.119 635.769 395.938 635.189 395.574C634.61 395.21 634.154 394.693 633.821 394.023C633.489 393.352 633.323 392.557 633.323 391.636C633.323 390.716 633.489 389.92 633.821 389.25C634.154 388.58 634.61 388.062 635.189 387.699C635.769 387.335 636.431 387.153 637.175 387.153C637.919 387.153 638.581 387.335 639.161 387.699C639.74 388.062 640.196 388.58 640.529 389.25C640.861 389.92 641.027 390.716 641.027 391.636ZM640.004 391.636C640.004 390.881 639.878 390.243 639.625 389.723C639.375 389.203 639.036 388.81 638.607 388.543C638.181 388.276 637.703 388.142 637.175 388.142C636.646 388.142 636.168 388.276 635.739 388.543C635.313 388.81 634.973 389.203 634.72 389.723C634.47 390.243 634.345 390.881 634.345 391.636C634.345 392.392 634.47 393.03 634.72 393.55C634.973 394.07 635.313 394.463 635.739 394.73C636.168 394.997 636.646 395.131 637.175 395.131C637.703 395.131 638.181 394.997 638.607 394.73C639.036 394.463 639.375 394.07 639.625 393.55C639.878 393.03 640.004 392.392 640.004 391.636ZM645.327 396.136C644.713 396.136 644.185 395.991 643.742 395.702C643.298 395.412 642.958 395.013 642.719 394.504C642.48 393.996 642.361 393.415 642.361 392.761C642.361 392.097 642.483 391.51 642.727 391.001C642.975 390.49 643.318 390.091 643.759 389.804C644.202 389.514 644.719 389.369 645.31 389.369C645.77 389.369 646.185 389.455 646.554 389.625C646.923 389.795 647.226 390.034 647.462 390.341C647.698 390.648 647.844 391.006 647.901 391.415H646.895C646.818 391.116 646.648 390.852 646.384 390.622C646.122 390.389 645.77 390.273 645.327 390.273C644.935 390.273 644.591 390.375 644.296 390.58C644.003 390.781 643.774 391.067 643.61 391.436C643.448 391.803 643.367 392.233 643.367 392.727C643.367 393.233 643.446 393.673 643.605 394.048C643.767 394.423 643.994 394.714 644.287 394.922C644.583 395.129 644.929 395.233 645.327 395.233C645.588 395.233 645.825 395.188 646.039 395.097C646.252 395.006 646.432 394.875 646.58 394.705C646.727 394.534 646.833 394.33 646.895 394.091H647.901C647.844 394.477 647.703 394.825 647.479 395.135C647.257 395.442 646.963 395.686 646.597 395.868C646.233 396.047 645.81 396.136 645.327 396.136ZM652.218 389.455V390.307H648.825V389.455H652.218ZM649.814 387.886H650.82V394.125C650.82 394.409 650.861 394.622 650.943 394.764C651.029 394.903 651.137 394.997 651.267 395.045C651.401 395.091 651.541 395.114 651.689 395.114C651.8 395.114 651.891 395.108 651.962 395.097C652.033 395.082 652.09 395.071 652.132 395.062L652.337 395.966C652.269 395.991 652.173 396.017 652.051 396.043C651.929 396.071 651.774 396.085 651.587 396.085C651.303 396.085 651.024 396.024 650.752 395.902C650.482 395.78 650.257 395.594 650.078 395.344C649.902 395.094 649.814 394.778 649.814 394.398V387.886Z" fill="black" fill-opacity="0.4"/>
<path d="M702.282 387.273V396H701.259L696.504 389.148H696.418V396H695.361V387.273H696.384L701.157 394.142H701.242V387.273H702.282ZM706.919 396.136C706.328 396.136 705.81 395.996 705.364 395.714C704.921 395.433 704.574 395.04 704.324 394.534C704.077 394.028 703.953 393.437 703.953 392.761C703.953 392.08 704.077 391.484 704.324 390.976C704.574 390.467 704.921 390.072 705.364 389.791C705.81 389.51 706.328 389.369 706.919 389.369C707.51 389.369 708.027 389.51 708.47 389.791C708.917 390.072 709.263 390.467 709.51 390.976C709.76 391.484 709.885 392.08 709.885 392.761C709.885 393.437 709.76 394.028 709.51 394.534C709.263 395.04 708.917 395.433 708.47 395.714C708.027 395.996 707.51 396.136 706.919 396.136ZM706.919 395.233C707.368 395.233 707.738 395.118 708.027 394.888C708.317 394.658 708.532 394.355 708.671 393.98C708.81 393.605 708.88 393.199 708.88 392.761C708.88 392.324 708.81 391.916 708.671 391.538C708.532 391.161 708.317 390.855 708.027 390.622C707.738 390.389 707.368 390.273 706.919 390.273C706.47 390.273 706.101 390.389 705.811 390.622C705.522 390.855 705.307 391.161 705.168 391.538C705.029 391.916 704.959 392.324 704.959 392.761C704.959 393.199 705.029 393.605 705.168 393.98C705.307 394.355 705.522 394.658 705.811 394.888C706.101 395.118 706.47 395.233 706.919 395.233ZM716.538 389.455L714.118 396H713.095L710.675 389.455H711.766L713.572 394.67H713.641L715.447 389.455H716.538Z" fill="black" fill-opacity="0.4"/>
<path d="M761.135 396H758.442V387.273H761.255C762.101 387.273 762.826 387.447 763.428 387.797C764.03 388.143 764.492 388.642 764.813 389.293C765.134 389.94 765.294 390.716 765.294 391.619C765.294 392.528 765.133 393.311 764.809 393.967C764.485 394.621 764.013 395.124 763.394 395.476C762.775 395.825 762.022 396 761.135 396ZM759.499 395.062H761.067C761.789 395.062 762.387 394.923 762.861 394.645C763.336 394.366 763.689 393.97 763.922 393.456C764.155 392.942 764.272 392.33 764.272 391.619C764.272 390.915 764.157 390.308 763.927 389.8C763.696 389.288 763.353 388.896 762.895 388.624C762.438 388.348 761.868 388.21 761.187 388.21H759.499V395.062ZM769.675 396.136C769.044 396.136 768.5 395.997 768.043 395.719C767.589 395.438 767.238 395.045 766.991 394.543C766.746 394.037 766.624 393.449 766.624 392.778C766.624 392.108 766.746 391.517 766.991 391.006C767.238 390.491 767.581 390.091 768.022 389.804C768.465 389.514 768.982 389.369 769.573 389.369C769.914 389.369 770.25 389.426 770.583 389.54C770.915 389.653 771.218 389.838 771.491 390.094C771.763 390.347 771.981 390.682 772.142 391.099C772.304 391.517 772.385 392.031 772.385 392.642V393.068H767.34V392.199H771.363C771.363 391.83 771.289 391.5 771.141 391.21C770.996 390.92 770.789 390.692 770.519 390.524C770.252 390.357 769.937 390.273 769.573 390.273C769.172 390.273 768.826 390.372 768.533 390.571C768.243 390.767 768.02 391.023 767.864 391.338C767.708 391.653 767.63 391.991 767.63 392.352V392.932C767.63 393.426 767.715 393.845 767.885 394.189C768.059 394.53 768.299 394.79 768.606 394.969C768.912 395.145 769.269 395.233 769.675 395.233C769.939 395.233 770.178 395.196 770.391 395.122C770.607 395.045 770.793 394.932 770.949 394.781C771.106 394.628 771.226 394.437 771.312 394.21L772.283 394.483C772.181 394.812 772.009 395.102 771.767 395.352C771.526 395.599 771.228 395.793 770.873 395.932C770.517 396.068 770.118 396.136 769.675 396.136ZM776.574 396.136C775.961 396.136 775.432 395.991 774.989 395.702C774.546 395.412 774.205 395.013 773.966 394.504C773.728 393.996 773.608 393.415 773.608 392.761C773.608 392.097 773.731 391.51 773.975 391.001C774.222 390.49 774.566 390.091 775.006 389.804C775.449 389.514 775.966 389.369 776.557 389.369C777.017 389.369 777.432 389.455 777.802 389.625C778.171 389.795 778.473 390.034 778.709 390.341C778.945 390.648 779.091 391.006 779.148 391.415H778.142C778.066 391.116 777.895 390.852 777.631 390.622C777.37 390.389 777.017 390.273 776.574 390.273C776.182 390.273 775.839 390.375 775.543 390.58C775.25 390.781 775.022 391.067 774.857 391.436C774.695 391.803 774.614 392.233 774.614 392.727C774.614 393.233 774.694 393.673 774.853 394.048C775.015 394.423 775.242 394.714 775.535 394.922C775.83 395.129 776.177 395.233 776.574 395.233C776.836 395.233 777.073 395.188 777.286 395.097C777.499 395.006 777.679 394.875 777.827 394.705C777.975 394.534 778.08 394.33 778.142 394.091H779.148C779.091 394.477 778.951 394.825 778.726 395.135C778.505 395.442 778.211 395.686 777.844 395.868C777.481 396.047 777.057 396.136 776.574 396.136Z" fill="black" fill-opacity="0.4"/>
</svg>
